<svg width="215" height="151" viewBox="0 0 215 151" fill="none" xmlns="http://www.w3.org/2000/svg">
<g filter="url(#filter0_d_3035_5137)">
<path d="M19.4749 32.0585L50.3662 10.3719L62.2509 50.1495L87.7698 32.2345L101.751 130.691L66.65 72.1241L38.6586 100.798L19.4749 32.0585Z" fill="#95B3ED"/>
<path d="M19.4749 32.0585L50.3662 10.3719L62.2509 50.1495L87.7698 32.2345L101.751 130.691L66.65 72.1241L38.6586 100.798L19.4749 32.0585Z" stroke="black" stroke-width="3"/>
</g>
<g filter="url(#filter1_d_3035_5137)">
<path d="M185.292 51.9751L185.593 73.5552L203.541 85.541L183.111 92.4962L177.258 113.269L164.329 95.9879L142.764 96.8407L155.205 79.205L147.73 58.9587L168.347 65.3408L185.292 51.9751Z" fill="#FF5DAD"/>
<path d="M184.321 54.0151L184.594 73.5691L184.601 74.0948L185.038 74.3868L201.301 85.2474L182.788 91.5495L182.291 91.7189L182.148 92.225L176.845 111.048L165.13 95.3889L164.815 94.968L164.29 94.9887L144.749 95.7614L156.022 79.7814L156.325 79.3518L156.143 78.8587L149.37 60.5132L168.051 66.2961L168.553 66.4515L168.966 66.1259L184.321 54.0151Z" stroke="black" stroke-width="2"/>
</g>
<defs>
<filter id="filter0_d_3035_5137" x="17.7451" y="7.94849" width="93.4909" height="131.514" filterUnits="userSpaceOnUse" color-interpolation-filters="sRGB">
<feFlood flood-opacity="0" result="BackgroundImageFix"/>
<feColorMatrix in="SourceAlpha" type="matrix" values="0 0 0 0 0 0 0 0 0 0 0 0 0 0 0 0 0 0 127 0" result="hardAlpha"/>
<feOffset dx="8" dy="8"/>
<feComposite in2="hardAlpha" operator="out"/>
<feColorMatrix type="matrix" values="0 0 0 0 0 0 0 0 0 0 0 0 0 0 0 0 0 0 1 0"/>
<feBlend mode="normal" in2="BackgroundImageFix" result="effect1_dropShadow_3035_5137"/>
<feBlend mode="normal" in="SourceGraphic" in2="effect1_dropShadow_3035_5137" result="shape"/>
</filter>
<filter id="filter1_d_3035_5137" x="142.764" y="51.9751" width="64.7772" height="65.2944" filterUnits="userSpaceOnUse" color-interpolation-filters="sRGB">
<feFlood flood-opacity="0" result="BackgroundImageFix"/>
<feColorMatrix in="SourceAlpha" type="matrix" values="0 0 0 0 0 0 0 0 0 0 0 0 0 0 0 0 0 0 127 0" result="hardAlpha"/>
<feOffset dx="4" dy="4"/>
<feComposite in2="hardAlpha" operator="out"/>
<feColorMatrix type="matrix" values="0 0 0 0 0 0 0 0 0 0 0 0 0 0 0 0 0 0 1 0"/>
<feBlend mode="normal" in2="BackgroundImageFix" result="effect1_dropShadow_3035_5137"/>
<feBlend mode="normal" in="SourceGraphic" in2="effect1_dropShadow_3035_5137" result="shape"/>
</filter>
</defs>
</svg>
