<svg width="100%" height="100%" viewBox="0 0 2850 590" version="1.1" xmlns="http://www.w3.org/2000/svg" xmlns:xlink="http://www.w3.org/1999/xlink" xml:space="preserve"  style="fill-rule:evenodd;clip-rule:evenodd;stroke-linejoin:round;stroke-miterlimit:2;"><rect id="Artboard1" x="0" y="0" width="2849.09" height="589.372" style="fill:none;"/><g id="layer1"><path id="path2" d="M75.605,536.607c-4.7,-2.563 -5.472,-6.321 -2.131,-10.374c2.245,-2.723 365.734,-4.675 370.75,-1.99c3.881,2.077 4.573,7.783 1.322,10.899c-2.68,2.567 -365.285,4.003 -369.941,1.465Zm0.039,-28.637c-4.848,-2.573 -5.584,-8.727 -1.415,-11.831c3.639,-2.708 368.696,-2.025 371.536,0.695c3.672,3.519 2.471,8.601 -2.592,10.97c-3.518,1.645 -364.433,1.808 -367.529,0.166Zm23.541,-28.012c-25.706,-0.303 -28.02,-1.029 -28.02,-8.797c0,-6.067 -0.262,-6.059 202.66,-6.11c174.28,-0.044 174.03,-0.055 174.03,7.153c0,8.041 10.56,7.507 -146.258,7.404c-77.636,-0.051 -149.971,0.065 -160.744,0.258c-10.773,0.193 -29.524,0.234 -41.668,0.092Zm-21.616,-28.634c-4.107,-1.042 -7.271,-6.615 -5.569,-9.81c2.209,-4.146 3.555,-4.41 19.582,-3.838c8.039,0.287 31.826,0.672 52.862,0.855c38.247,0.334 38.247,0.334 40.683,2.322c1.339,1.094 4.227,3.223 6.417,4.731c4.619,3.182 4.473,3.514 -2.098,4.738c-4.925,0.918 -108.551,1.846 -111.877,1.002Zm274.607,-0.263c-31.651,-0.511 -30.421,-0.078 -22.215,-7.816c5.659,-5.337 5.659,-5.337 60.33,-5.337c53.802,0 54.689,0.024 55.774,1.507c2.686,3.672 1.955,7.454 -1.976,10.218c-2.183,1.535 -44.555,2.193 -91.913,1.428Zm-111.196,-1.103c-23.315,-1.95 -36.184,-7.956 -51.164,-23.88c-17.954,-19.086 -19.864,-55.393 -4.232,-80.459c4.066,-6.52 9.994,-15.3 11.444,-16.951c6.053,-6.889 7.606,-17.659 4.765,-33.044c-5.446,-29.494 6.607,-49.488 32.209,-53.428c4.351,-0.67 4.882,31.085 0.608,36.372c-11.258,13.924 -11.023,35.623 0.506,46.798c2.914,2.824 3.065,4.991 2.049,29.482c-0.492,11.866 -0.492,11.866 -6.399,11.866c-16.873,-0 -19.095,21.722 -3.281,32.083c3.211,2.104 59.562,1.729 64.013,-0.426c17.377,-8.413 14.961,-31.657 -3.291,-31.657c-8.496,-0 -8.355,0.159 -8.355,-9.512c-0,-5.457 -0.222,-5.332 5.72,-3.225c25.119,8.908 39.163,-4.715 31.679,-30.729c-2.444,-8.495 -2.488,-9.437 -0.176,-3.815c0.979,2.379 4.472,8.821 7.764,14.314c17.697,29.538 21.513,44.487 16.543,64.816c-9.796,40.076 -41.528,56.319 -100.402,51.395Zm-105.425,-31.767c-1.377,-22.041 0.051,-242.706 1.582,-244.426c5.177,-5.819 18.92,-5.243 22.224,0.931c0.822,1.535 1.356,111.043 1.022,209.345c-0.032,9.324 -0.032,22.673 0,29.667c0.058,12.715 0.058,12.715 -12.122,12.807c-12.18,0.092 -12.18,0.092 -12.706,-8.324Zm223.686,7.663c-1.358,-3.733 -0.529,-250.239 0.846,-251.459c6.572,-5.831 19.145,-6.138 22.597,-0.553c0.738,1.193 1.487,235.762 0.783,245.147c-0.538,7.169 -0.538,7.169 -12.244,7.394c-7.328,0.14 -11.81,-0.057 -11.982,-0.529Zm-264.447,-14.819c-3.356,-1.625 -4.67,-9.626 -1.83,-11.146c2.461,-1.317 4.587,-0.878 6.888,1.422c4.97,4.971 0.978,12.647 -5.058,9.724Zm-19.832,-1.986c-4.853,-4.853 -0.921,-13.588 6.159,-13.68c2.74,-0.036 3.605,1.816 3.605,7.717c0,7.481 -5.119,10.608 -9.764,5.963Zm361.754,0.937c-0.924,-0.647 -2.341,-2.427 -3.148,-3.955c-0.807,-1.528 -1.482,-2.22 -1.5,-1.538c-0.189,7.021 -11.69,7.039 -11.668,0.018c0.013,-4.471 0.636,-5.249 4.622,-5.773c1.992,-0.262 5.243,-0.974 7.224,-1.582c9.548,-2.932 18.127,5.578 11.9,11.805c-2.453,2.453 -4.907,2.792 -7.43,1.025l0,0Zm-324.235,-28.393c-12.048,-11.668 -28.448,-37.824 -36.339,-57.957c-14.364,-36.649 -16.965,-73.397 -8.283,-117.016c3.618,-18.178 11.756,-35.94 16.012,-34.951c1.506,0.35 5.148,0.645 8.093,0.655c5.355,0.018 5.355,0.018 2.058,6.37c-5.89,11.344 -11.606,30.514 -13.883,46.554c-7.067,49.778 6.116,100.952 35.376,137.322c4.583,5.696 5.123,7.899 5.313,21.66c0.077,5.561 0.138,5.58 -8.347,-2.637Zm124.094,3.788c-3.995,-5.704 2.472,-11.019 8.06,-6.624c1.697,1.335 2.005,1.371 2.864,0.335c2.872,-3.46 6.437,-3.071 7.16,0.783c0.966,5.148 -1.801,7.599 -6.42,5.685c-1.832,-0.758 -2.491,-0.709 -3.92,0.292c-2.543,1.781 -6.328,1.55 -7.744,-0.471Zm37.592,-0.175c-2.157,-2.157 -2.213,-2.603 -0.758,-6.086c1.948,-4.662 10.963,-2.482 10.963,2.65c-0,5.018 -6.451,7.19 -10.205,3.436Zm123.819,-8.364c-0.23,-10.397 -0.23,-10.397 5.467,-18.362c3.134,-4.38 6.991,-10.337 8.571,-13.238c5.387,-9.889 10.969,-21.089 11.826,-23.731c0.471,-1.45 1.636,-4.193 2.588,-6.095c11.168,-22.293 14.974,-84.42 6.661,-108.697c-1.012,-2.955 -2.874,-8.889 -4.138,-13.187c-1.264,-4.298 -3.632,-10.702 -5.263,-14.231c-1.63,-3.529 -2.964,-6.489 -2.964,-6.576c-0,-0.088 2.797,-0.357 6.215,-0.599c3.419,-0.242 6.779,-0.656 7.468,-0.92c3.337,-1.283 13.676,27.132 16.861,46.338c9.313,56.162 -5.088,113.196 -39.322,155.737c-11.193,13.908 -13.727,14.554 -13.97,3.561Zm-137.572,8.556c-1.149,-1.15 -1.165,-5.232 -0.029,-7.725c1.98,-4.346 8.166,-1.349 8.166,3.958c-0,3.572 -1.063,4.671 -4.52,4.671c-1.492,-0 -3.119,-0.407 -3.617,-0.904l0,-0Zm-13.711,-36.765c-0,-18.035 -0.273,-17.044 4.426,-16.104c4.526,0.905 3.519,32.678 -1.036,32.678c-3.39,-0 -3.39,-0 -3.39,-16.574Zm15.821,0.852c-0,-15.722 -0,-15.722 3.187,-16.149c3.92,-0.526 3.347,-2.806 3.988,15.862c0.551,16.009 0.551,16.009 -3.312,16.009c-3.863,-0 -3.863,-0 -3.863,-15.722Zm17.338,-20.805c-0.81,-0.976 -0.108,-2.045 4.602,-7.003c6.053,-6.373 6.675,-6.516 4.846,-1.111c-2.145,6.34 -7.269,10.74 -9.448,8.114Zm-17.079,-30.292c0.216,-12.765 0.373,-23.549 0.35,-23.963c-0.405,-7.241 -0.582,-121.435 -0.207,-133.537c0.519,-16.763 0.519,-16.763 3.373,-16.763c3.902,0 3.904,0.068 3.619,107.734c-0.237,89.275 -0.237,89.275 -3.882,89.507c-3.645,0.233 -3.645,0.233 -3.253,-22.978Zm-12.948,21.576c-3.814,-0.836 -3.775,-0.597 -3.331,-20.032c0.416,-18.188 0.416,-18.188 3.062,-18.618c3.986,-0.647 3.917,-0.986 3.917,19.479c0,20.533 0.103,19.993 -3.648,19.171Zm64.672,-5.987c0,-0.552 0.226,-0.778 0.502,-0.502c0.277,0.276 0.277,0.728 0,1.004c-0.276,0.277 -0.502,0.051 -0.502,-0.502Zm-1.476,-6.592c-3.357,-15.117 -13.089,-28.079 -25.446,-33.893c-7.483,-3.521 -6.955,-2.15 -6.969,-18.105c-0.011,-13.763 -0.011,-13.763 2.061,-13.306c26.982,5.959 39.333,26.509 32.572,54.192c-1.203,4.924 -1.534,7.966 -1.211,11.112c0.245,2.383 0.336,4.332 0.201,4.332c-0.135,-0 -0.679,-1.949 -1.208,-4.332Zm-66.718,-72.325c-0.312,-19.371 -0.304,-50.985 0.019,-70.252c0.504,-30.145 0.673,-36.517 1.063,-40.118c0.034,-0.311 1.417,-0.565 3.075,-0.565c3.013,0 3.013,0 3.013,73.078c0,73.078 0,73.078 -3.301,73.078c-3.301,-0 -3.301,-0 -3.869,-35.221l0,0Zm-136.454,-9.039c-15.082,-0.262 -13.681,0.944 -13.224,-11.376c0.317,-8.549 0.317,-8.549 6.703,-8.287c6.385,0.263 6.385,0.263 6.129,-6.33c-0.256,-6.593 -0.256,-6.593 7.422,-6.592c4.222,-0 7.821,0.254 7.997,0.565c0.769,1.359 -0.457,32.579 -1.273,32.415c-0.463,-0.094 -6.652,-0.271 -13.754,-0.395Zm64.024,-0.798c-1.943,-0.277 -2.996,-10.75 -2.341,-23.276c0.448,-8.565 0.173,-8.271 8.11,-8.661c6.404,-0.315 6.404,-0.315 6.149,6.51c-0.255,6.824 -0.255,6.824 23.26,6.615c23.515,-0.21 23.515,-0.21 23.193,8.829c-0.178,4.972 -0.589,9.304 -0.914,9.627c-0.548,0.544 -53.821,0.874 -57.457,0.356Zm113.502,-0.012c-3.39,-0.51 -3.39,-0.51 -3.601,-9.663c-0.241,-10.463 0.797,-10.77 33.203,-9.81c18.032,0.535 16.826,1.081 15.69,-7.113c-0.42,-3.035 -0.697,-5.542 -0.615,-5.572c0.082,-0.029 3.625,0.076 7.872,0.235c7.722,0.289 7.722,0.289 7.722,16.04c-0,15.75 -0,15.75 -11.556,15.75c-6.355,0 -19.153,0.145 -28.44,0.321c-9.286,0.177 -18.41,0.092 -20.275,-0.188Zm106.98,-13.645c0,-18.003 -0.074,-17.792 6.538,-18.47c2.827,-0.29 5.912,-0.71 6.856,-0.934c1.717,-0.407 1.717,-0.407 1.2,6.938c-0.516,7.345 -0.516,7.345 6.006,7.003c6.522,-0.343 6.522,-0.343 6.522,9.693c0,10.036 0,10.036 -13.561,10.036c-13.561,-0 -13.561,-0 -13.561,-14.266Zm-200.399,-50.606c-3.107,-0.251 -9.21,-0.842 -13.561,-1.312c-4.35,-0.47 -25.709,-1.009 -47.463,-1.199c-52.532,-0.457 -48.643,0.411 -48.127,-10.737c0.231,-4.984 -0.082,-5.235 -7.358,-5.917c-3.627,-0.34 -5.81,-0.926 -6.508,-1.745c-1.347,-1.584 -4.156,-8.746 -4.768,-12.158c-0.711,-3.965 -2.171,-5.788 -5.067,-6.332c-3.222,-0.604 -3.857,-1.853 -7.894,-15.516c-4.691,-15.877 -4.83,-14.736 1.367,-11.148c20.049,11.608 64.095,23.854 99.45,27.652c22.76,2.444 60.461,5.03 77.787,5.334c0.687,0.012 0.753,21.343 0.085,27.733c-0.48,4.59 -0.48,4.59 -4.332,4.991c-6.072,0.634 -27.388,0.858 -33.611,0.354Zm93.984,-0.461c-3.578,-0.294 -3.578,-0.294 -3.586,-14.002c-0.005,-7.539 -0.211,-14.931 -0.458,-16.426c-0.45,-2.718 -0.45,-2.718 13.381,-3.24c40.988,-1.547 70.252,-4.16 94.065,-8.399c31.562,-5.618 60.293,-15.19 74.137,-24.698c4.021,-2.762 4.046,-2.455 0.53,6.539c-1.697,4.339 -3.603,10.209 -4.236,13.045c-1.664,7.451 -2.171,8.291 -6.254,10.359c-3.905,1.98 -5.179,4.628 -6.596,13.717c-0.728,4.667 -1.014,4.851 -8.685,5.593c-3.896,0.377 -7.122,0.694 -7.169,0.706c-0.047,0.011 -0.255,3.251 -0.461,7.199c-0.207,3.948 -0.622,7.423 -0.923,7.722c-0.3,0.299 -16.209,0.439 -35.352,0.311c-22.409,-0.15 -37.612,0.071 -42.688,0.621c-7.587,0.821 -58.355,1.558 -65.705,0.953Zm-44.028,-51.899c-3.465,-3.503 -5.363,-59.027 -2.116,-61.918c0.418,-0.372 8.342,-0.516 17.807,-0.324c17.054,0.346 17.054,0.346 17.61,26.29c0.678,31.661 0.805,30.513 -3.869,35.182c-5.841,5.836 -23.95,6.31 -29.432,0.77Zm9.507,-9.815c2.05,-2.607 1.971,-4.454 -0.288,-6.713c-3.545,-3.544 -7.945,-1.607 -7.945,3.499c0,4.964 5.245,7.012 8.233,3.214Zm17.716,0.311c3.378,-4.822 -2.213,-10.743 -6.49,-6.873c-1.583,1.433 -1.881,6.236 -0.474,7.643c1.551,1.551 5.656,1.097 6.964,-0.77Zm-18.123,-14.053c2.005,-2.216 2.436,-6.615 0.823,-8.398c-3.008,-3.324 -9.402,-0.34 -9.402,4.386c-0,4.282 5.857,7.02 8.579,4.012Zm17.76,-0.236c3.385,-3.633 1.243,-9.652 -3.435,-9.652c-4.833,0 -6.373,5.347 -2.621,9.099c2.632,2.632 4.003,2.757 6.056,0.553Zm-17.17,-16.925c3.049,-2.76 0.805,-8.548 -3.314,-8.548c-3.004,0 -5.102,1.907 -5.102,4.637c0,4.293 5.282,6.747 8.416,3.911Zm17.199,-0.26c3.156,-3.156 1.078,-8.288 -3.356,-8.288c-4.568,0 -5.969,5.262 -2.193,8.233c2.482,1.952 3.64,1.963 5.549,0.055l0,-0Zm-121.671,36.133c-2.486,-0.309 -6.47,-0.598 -8.852,-0.643c-5.51,-0.104 -5.483,-0.186 2.136,-6.485c10.7,-8.846 28.959,-19.528 44.254,-25.89c5.119,-2.13 20.272,-7.029 20.547,-6.643c4.239,5.961 -0.079,15.813 -7.985,18.22c-7.344,2.236 -27.931,12.846 -36.764,18.946c-4.977,3.438 -5.279,3.495 -13.336,2.495Zm203.036,-4.135c-6.1,-4.048 -23.909,-13.091 -36.26,-18.414c-5.749,-2.477 -5.749,-2.477 -5.651,-9.915c0.061,-4.593 0.387,-7.336 0.852,-7.171c0.414,0.147 4.483,1.503 9.04,3.015c13.472,4.468 37.632,17.171 48.809,25.664c3.316,2.52 7.523,5.642 9.349,6.938c4.117,2.923 3.885,3.008 -9.941,3.666c-9.794,0.466 -9.794,0.466 -16.198,-3.783Zm-64.037,1.15c-3.029,-3.029 -2.099,-7.533 1.556,-7.533c5.913,-0 8.08,3.789 4.234,7.402c-2.169,2.038 -3.846,2.076 -5.79,0.131Zm-64.791,-0.753c-2.942,-2.943 -0.75,-6.78 3.873,-6.78c3.799,-0 4.414,0.641 4.414,4.6c0,4.249 -4.923,5.544 -8.287,2.18Zm62.979,-17.044c-0.799,-4.971 0.314,-7.401 3.514,-7.672c3.489,-0.295 5.836,1.849 5.82,5.316c-0.026,5.525 -8.482,7.658 -9.334,2.356Zm-60.524,1.446c-6.645,-1.282 -4.643,-10.365 2.177,-9.876c3.279,0.236 3.279,0.236 3.516,3.566c0.464,6.489 -0.31,7.348 -5.693,6.31Zm-0.948,-19.279c-6.713,-3.395 -2.35,-12.332 4.708,-9.645c1.875,0.713 2.072,1.144 2.072,4.513c0,6.205 -1.866,7.618 -6.78,5.132Zm62.719,0.476c-1.945,-0.785 -1.208,-9.2 0.85,-9.716c3.264,-0.819 6.014,-0.058 7.152,1.98c2.763,4.945 -2.444,9.979 -8.002,7.736Z" style="fill:#fff;fill-rule:nonzero;"/><g><g><path d="M598.375,438.856l-24.727,-71.965l-26.28,71.965l51.007,-0Zm-36.26,-96.138l24.95,-0l59.102,162.891l-24.173,0l-16.522,-48.79l-64.425,0l-17.631,48.79l-22.62,0l61.319,-162.891Z" style="fill:#fff;fill-rule:nonzero;"/><path d="M676.217,447.616c0,12.715 2.698,23.36 8.095,31.935c5.396,8.575 14.045,12.863 25.947,12.863c9.241,-0 16.836,-3.974 22.787,-11.92c5.951,-7.947 8.926,-19.35 8.926,-34.209c0,-15.006 -3.067,-26.113 -9.203,-33.321c-6.136,-7.208 -13.713,-10.811 -22.732,-10.811c-10.053,-0 -18.203,3.844 -24.45,11.532c-6.247,7.688 -9.37,18.998 -9.37,33.931Zm30.05,-62.872c9.093,-0 16.707,1.922 22.843,5.766c3.548,2.217 7.577,6.098 12.086,11.643l0,-59.99l19.183,0l0,163.446l-17.963,0l-0,-16.522c-4.657,7.319 -10.165,12.604 -16.522,15.857c-6.357,3.253 -13.639,4.879 -21.845,4.879c-13.232,-0 -24.69,-5.563 -34.374,-16.688c-9.684,-11.126 -14.526,-25.929 -14.526,-44.41c-0,-17.298 4.417,-32.286 13.251,-44.964c8.834,-12.678 21.456,-19.017 37.867,-19.017Z" style="fill:#fff;fill-rule:nonzero;"/><path d="M789.875,386.85l19.738,0l-0,16.855c4.731,-5.84 9.019,-10.091 12.863,-12.752c6.579,-4.509 14.045,-6.764 22.399,-6.764c9.462,0 17.076,2.329 22.842,6.986c3.253,2.661 6.21,6.579 8.871,11.754c4.435,-6.358 9.647,-11.07 15.635,-14.138c5.988,-3.068 12.715,-4.602 20.181,-4.602c15.968,0 26.834,5.766 32.601,17.298c3.104,6.21 4.657,14.563 4.657,25.061l-0,79.061l-20.736,0l0,-82.499c0,-7.91 -1.977,-13.343 -5.932,-16.3c-3.955,-2.957 -8.779,-4.436 -14.471,-4.436c-7.836,0 -14.581,2.625 -20.237,7.873c-5.655,5.249 -8.482,14.009 -8.482,26.28l-0,69.082l-20.292,0l-0,-77.509c-0,-8.058 -0.961,-13.935 -2.884,-17.631c-3.03,-5.544 -8.686,-8.316 -16.965,-8.316c-7.54,-0 -14.397,2.92 -20.569,8.76c-6.173,5.84 -9.259,16.411 -9.259,31.713l-0,62.983l-19.96,0l0,-118.759Z" style="fill:#fff;fill-rule:nonzero;"/><path d="M979.047,387.405l20.292,-0l-0,118.204l-20.292,0l-0,-118.204Zm-0,-44.687l20.292,-0l-0,22.621l-20.292,-0l-0,-22.621Z" style="fill:#fff;fill-rule:nonzero;"/><path d="M1029.5,386.85l18.961,0l0,16.855c5.618,-6.949 11.569,-11.939 17.853,-14.97c6.283,-3.03 13.269,-4.546 20.957,-4.546c16.855,0 28.239,5.877 34.153,17.631c3.253,6.431 4.879,15.635 4.879,27.611l0,76.178l-20.292,0l-0,-74.848c-0,-7.244 -1.072,-13.084 -3.216,-17.52c-3.548,-7.392 -9.979,-11.088 -19.294,-11.088c-4.731,-0 -8.612,0.48 -11.643,1.441c-5.47,1.627 -10.275,4.879 -14.415,9.758c-3.327,3.918 -5.489,7.965 -6.487,12.142c-0.998,4.177 -1.497,10.146 -1.497,17.908l0,62.207l-19.959,0l-0,-118.759Z" style="fill:#fff;fill-rule:nonzero;"/></g><g><path d="M677.323,275.739l-64.223,-93.051c-0.563,-0.815 -0.572,-1.892 -0.024,-2.717l57.873,-87.127c1.048,-1.578 -0.083,-3.686 -1.977,-3.686l-45.208,-0c-0.812,-0 -1.568,0.414 -2.005,1.099l-46.488,72.782c-1.285,2.011 -4.4,1.101 -4.4,-1.285l-0,-70.203c-0,-1.322 -1.073,-2.394 -2.395,-2.394l-43.635,-0c-1.32,-0 -2.391,1.07 -2.391,2.391l-0,185.422c-0,1.311 1.063,2.374 2.374,2.374l43.657,-0c1.318,-0 2.388,-1.069 2.388,-2.389l0,-71.676c0,-2.407 3.167,-3.29 4.412,-1.229l44.785,74.149c0.43,0.71 1.199,1.145 2.029,1.145l53.334,-0c1.856,-0 2.947,-2.081 1.894,-3.605l-0,-0Z" style="fill:#fff;fill-rule:nonzero;"/><path d="M732.442,89.157l-43.65,-0c-1.317,-0 -2.386,1.069 -2.386,2.386l-0,185.414c-0,1.318 1.068,2.387 2.386,2.387l43.65,-0c1.318,-0 2.387,-1.068 2.387,-2.387l-0,-185.414c-0,-1.317 -1.069,-2.386 -2.387,-2.386l0,-0Z" style="fill:#fff;fill-rule:nonzero;"/><path d="M854.691,96.702c-9.039,-3.982 -20.799,-7.666 -45.429,-7.666l-55.377,-0c-1.318,-0 -2.387,1.069 -2.387,2.387l-0,185.693c-0,1.298 1.053,2.351 2.35,2.351l56.844,-0c28.521,-0 37.239,-4.264 47.335,-9.202c15.655,-7.657 28.902,-19.599 38.309,-34.537c9.662,-15.345 14.771,-33.143 14.771,-51.469c-0.001,-38.095 -22.145,-72.463 -56.416,-87.557l0,-0Zm-4.617,123.65c-8.912,9.131 -27.003,14.802 -47.214,14.802l-2.558,0c-1.363,0 -2.468,-1.104 -2.468,-2.468l0,-97.318c0,-1.316 1.05,-2.386 2.366,-2.411c11.684,-0.217 62.692,1.671 63.037,51.179c-0,14.872 -4.552,27.395 -13.163,36.216l-0,0Z" style="fill:#fff;fill-rule:nonzero;"/><path d="M964.76,84.016l-4.389,78.195l-15.426,-0l-4.388,-78.195l24.203,0Z" style="fill:#fff;fill-rule:nonzero;"/><path d="M1066.94,166.619c-32.698,-15.091 -37.723,-17.409 -37.723,-25.601c-0,-8.808 7.906,-14.075 15.554,-14.075c8.263,-0 12.043,3.933 14.007,8.495c0.438,1.016 1.571,1.538 2.647,1.272l40.267,-10.048c1.174,-0.294 1.91,-1.448 1.711,-2.644c-3.386,-20.151 -20.598,-29.82 -28.63,-33.292c-11.357,-4.75 -22.521,-5.524 -28.507,-5.524c-31.617,0 -65.22,20.634 -65.22,58.88c-0,35.91 33.061,49.582 45.504,54.729l2.209,0.951c26.451,11.384 33.559,14.442 33.559,23.643c0,8.363 -6.612,17.392 -17.297,17.392c-2.38,-0 -13.293,-0.757 -17.171,-14.22c-0.335,-1.163 -1.493,-1.884 -2.678,-1.642l-43.369,8.988c-1.283,0.267 -2.073,1.549 -1.762,2.821c3.709,15.247 11.158,24.643 16.178,29.507c11.572,10.804 28.136,16.281 49.301,16.281c25.459,0 43.797,-7.934 54.506,-23.577c9.104,-13.302 10.463,-29.262 10.463,-37.59c0,-24.991 -12.209,-40.341 -43.549,-54.746l0,0Z" style="fill:#fff;fill-rule:nonzero;"/><path d="M1359.99,174.436c-0.117,-1.247 -1.165,-2.194 -2.418,-2.194l-99.487,-0c-1.318,-0 -2.388,1.068 -2.392,2.386l-0.077,36.483c-0.002,1.33 1.075,2.411 2.406,2.411l45.639,-0c1.889,-0 2.971,2.15 1.847,3.668c-10.214,13.787 -25.749,21.694 -42.621,21.694c-29.474,0 -53.452,-24.508 -53.452,-54.633c-0,-30.127 23.978,-54.634 53.452,-54.634c15.415,-0 30.152,6.916 40.251,18.699c0.805,0.938 2.209,1.07 3.2,0.331l31.348,-23.412c1.471,-1.098 1.722,-3.197 0.569,-4.624c-8.4,-10.399 -18.864,-19.065 -30.535,-25.248c-13.941,-7.386 -29.025,-11.131 -44.833,-11.131c-53.877,0 -97.708,44.869 -97.708,100.019c-0,55.15 43.831,100.018 97.708,100.018c15.808,0 30.892,-3.745 44.833,-11.13c13.308,-7.05 25.045,-17.327 33.944,-29.72c6.585,-9.172 11.55,-19.323 14.756,-30.173c2.77,-9.378 4.175,-19.135 4.175,-28.996c-0,-2.89 -0.361,-7.219 -0.605,-9.814l0,0Z" style="fill:#fff;fill-rule:nonzero;"/><path d="M1512.5,89.078l-43.822,0c-1.269,0 -2.299,1.03 -2.299,2.299l-0,112.088c-0,6.952 -0,15.602 -2.774,22.078c-2.774,6.815 -10.866,10.125 -20.012,10.125c-8.727,0 -16.915,-3.673 -20.265,-11.143c-2.662,-6.422 -3.018,-14.249 -3.018,-21.06l-0,-112.088c-0,-1.269 -1.03,-2.299 -2.299,-2.299l-43.819,0c-1.269,0 -2.299,1.03 -2.299,2.299l-0,112.088c-0,26.084 2.773,40.769 19.232,58.844c17.216,18.629 42.087,20.642 52.968,20.642c22.102,-0 37.873,-7.006 51.416,-20.83c11.908,-12.166 19.29,-26.223 19.29,-58.657l0,-112.087c0,-1.27 -1.03,-2.299 -2.299,-2.299l0,0Z" style="fill:#fff;fill-rule:nonzero;"/><path d="M1577.26,89.157l-43.65,-0c-1.318,-0 -2.387,1.069 -2.387,2.386l0,185.414c0,1.318 1.068,2.387 2.387,2.387l43.65,-0c1.317,-0 2.386,-1.068 2.386,-2.387l0,-185.414c0,-1.317 -1.069,-2.386 -2.386,-2.386l-0,-0Z" style="fill:#fff;fill-rule:nonzero;"/><path d="M1712.77,88.628l-120.969,-0c-1.269,-0 -2.299,1.029 -2.299,2.299l-0,39.235c-0,1.269 1.03,2.299 2.299,2.299l34.1,-0c1.269,-0 2.299,1.03 2.299,2.299l-0,141.955c-0,1.269 1.03,2.299 2.299,2.299l43.824,-0c1.269,-0 2.299,-1.03 2.299,-2.299l-0,-141.956c-0,-1.269 1.03,-2.299 2.299,-2.299l33.85,-0c1.269,-0 2.299,-1.03 2.299,-2.299l0,-39.234c-0.001,-1.27 -1.03,-2.299 -2.3,-2.299Z" style="fill:#fff;fill-rule:nonzero;"/><path d="M1873.25,276.521l-69.992,-185.733c-0.387,-1.029 -1.373,-1.71 -2.473,-1.71l-41.204,-0c-1.242,-0 -2.356,0.771 -2.792,1.934l-69.907,185.504c-0.58,1.541 0.561,3.192 2.209,3.192l47.384,-0c1.01,-0 1.909,-0.651 2.225,-1.613l10.031,-30.416c0.321,-0.978 1.236,-1.637 2.263,-1.637l58.158,0c1.018,0 1.923,0.651 2.241,1.621l9.914,30.068c0.392,1.179 1.492,1.977 2.737,1.977l47,-0c1.647,-0 2.786,-1.648 2.206,-3.187l-0,0Zm-78.53,-69.395c-0,0 -29.39,0 -29.39,0c-1.59,0 -2.715,-1.558 -2.217,-3.069l14.658,-44.456c0.73,-2.212 3.857,-2.212 4.587,-0l14.633,44.382c0.512,1.547 -0.642,3.143 -2.271,3.143Z" style="fill:#fff;fill-rule:nonzero;"/><path d="M1987.61,213.185c-0.46,-1.058 -0.067,-2.293 0.922,-2.889c3.208,-1.931 6.343,-4.247 9.87,-7.289c11.772,-10.25 19.687,-30.364 19.687,-50.042c-0,-20.32 -8.001,-38.752 -21.949,-50.567c-10.178,-8.592 -23.305,-13.917 -57.236,-13.917l-58.684,-0c-1.27,-0 -2.299,1.03 -2.299,2.299l0,185.589c0,1.269 1.029,2.299 2.299,2.299l43.823,-0c1.269,-0 2.299,-1.03 2.299,-2.299l-0,-54.578c-0,-1.269 1.029,-2.299 2.299,-2.299l7.616,0c0.914,0 1.742,0.542 2.107,1.38l24.876,57.004c0.365,0.838 1.193,1.379 2.107,1.379l47.585,0c1.656,0 2.77,-1.7 2.107,-3.218l-27.429,-62.852Zm-26.759,-40.224c-6.116,2.753 -13.528,2.753 -17.956,2.753l-14.254,0c-1.27,0 -2.299,-1.03 -2.299,-2.299l-0,-38.858c-0,-1.269 1.029,-2.299 2.299,-2.299l12.506,0c5.113,0 12.84,0 19.211,2.756c7.605,3.295 11.301,9.417 11.301,18.714c-0,6.552 -1.875,15.209 -10.808,19.233Z" style="fill:#fff;fill-rule:nonzero;"/><path d="M2175.85,96.702c-9.04,-3.982 -20.799,-7.666 -45.43,-7.666l-55.376,-0c-1.318,-0 -2.387,1.069 -2.387,2.387l-0,185.693c-0,1.298 1.053,2.351 2.35,2.351l56.843,-0c28.522,-0 37.24,-4.264 47.336,-9.202c15.655,-7.657 28.902,-19.599 38.308,-34.537c9.663,-15.345 14.772,-33.143 14.772,-51.469c-0.002,-38.095 -22.146,-72.463 -56.416,-87.557l0,-0Zm-4.617,123.65c-8.913,9.131 -27.004,14.802 -47.214,14.802l-2.558,0c-1.363,0 -2.468,-1.104 -2.468,-2.468l0,-97.318c0,-1.316 1.05,-2.386 2.366,-2.411c11.683,-0.217 62.692,1.671 63.037,51.179c-0,14.872 -4.553,27.395 -13.163,36.216l-0,0Z" style="fill:#fff;fill-rule:nonzero;"/><path d="M2337.86,83.723c-53.876,-0 -97.708,44.869 -97.708,100.018c-0,55.15 43.832,100.019 97.708,100.019c53.876,0 97.708,-44.869 97.708,-100.019c0,-55.149 -43.832,-100.018 -97.708,-100.018Zm-0,154.653c-29.473,0 -53.452,-24.508 -53.452,-54.633c-0,-30.126 23.979,-54.634 53.452,-54.634c29.473,-0 53.452,24.508 53.452,54.634c0,30.125 -23.979,54.633 -53.452,54.633Z" style="fill:#fff;fill-rule:nonzero;"/><path d="M2577.8,88.629l-41.356,-0c-1.308,-0 -2.37,1.059 -2.37,2.369l0,111.618c0,7.272 0,16.319 -2.952,23.324c-3.099,7.749 -9.778,11.695 -19.83,11.695c-9.603,-0 -16.355,-4.271 -20.07,-12.694l-0.024,-0.06c-2.032,-4.979 -2.765,-10.608 -3.031,-15.636c-0.069,-1.264 -1.117,-2.25 -2.383,-2.25l-41.439,0c-1.332,0 -2.413,1.095 -2.383,2.427c0.499,21.775 3.846,35.043 18.58,51.488c16.589,18.248 40.676,20.217 51.251,20.217c21.451,-0 36.664,-6.885 49.756,-20.467c11.515,-11.959 18.651,-25.841 18.651,-58.047l-0,-111.588c-0,-1.323 -1.073,-2.396 -2.4,-2.396l0,-0Z" style="fill:#fff;fill-rule:nonzero;"/><path d="M2686.74,83.723c-53.877,-0 -97.709,44.869 -97.709,100.018c0,55.15 43.832,100.019 97.709,100.019c53.876,0 97.708,-44.869 97.708,-100.019c-0,-55.149 -43.832,-100.018 -97.708,-100.018Zm-0,154.653c-29.474,0 -53.453,-24.508 -53.453,-54.633c0,-30.126 23.979,-54.634 53.453,-54.634c29.473,-0 53.452,24.508 53.452,54.634c-0,30.125 -23.979,54.633 -53.452,54.633Z" style="fill:#fff;fill-rule:nonzero;"/></g></g></g></svg>
