<svg width="100%" height="100%" viewBox="0 0 2850 590" version="1.1" xmlns="http://www.w3.org/2000/svg" xmlns:xlink="http://www.w3.org/1999/xlink" xml:space="preserve" style="fill-rule:evenodd;clip-rule:evenodd;stroke-linejoin:round;stroke-miterlimit:2;"><rect id="Artboard1" x="0" y="0" width="2849.09" height="589.372" style="fill:none;"/><g id="layer1"><path id="path2" d="M75.605,536.607c-4.7,-2.563 -5.472,-6.321 -2.131,-10.374c2.245,-2.723 365.734,-4.675 370.75,-1.99c3.881,2.077 4.573,7.783 1.322,10.899c-2.68,2.567 -365.285,4.003 -369.941,1.465Zm0.039,-28.637c-4.848,-2.573 -5.584,-8.727 -1.415,-11.831c3.639,-2.708 368.696,-2.025 371.536,0.695c3.672,3.519 2.471,8.601 -2.592,10.97c-3.518,1.645 -364.433,1.808 -367.529,0.166Zm23.541,-28.012c-25.706,-0.303 -28.02,-1.029 -28.02,-8.797c0,-6.067 -0.262,-6.059 202.66,-6.11c174.28,-0.044 174.03,-0.055 174.03,7.153c0,8.041 10.56,7.507 -146.258,7.404c-77.636,-0.051 -149.971,0.065 -160.744,0.258c-10.773,0.193 -29.524,0.234 -41.668,0.092Zm-21.616,-28.634c-4.107,-1.042 -7.271,-6.615 -5.569,-9.81c2.209,-4.146 3.555,-4.41 19.582,-3.838c8.039,0.287 31.826,0.672 52.862,0.855c38.247,0.334 38.247,0.334 40.683,2.322c1.339,1.094 4.227,3.223 6.417,4.731c4.619,3.182 4.473,3.514 -2.098,4.738c-4.925,0.918 -108.551,1.846 -111.877,1.002Zm274.607,-0.263c-31.651,-0.511 -30.421,-0.078 -22.215,-7.816c5.659,-5.337 5.659,-5.337 60.33,-5.337c53.802,0 54.689,0.024 55.774,1.507c2.686,3.672 1.955,7.454 -1.976,10.218c-2.183,1.535 -44.555,2.193 -91.913,1.428Zm-111.196,-1.103c-23.315,-1.95 -36.184,-7.956 -51.164,-23.88c-17.954,-19.086 -19.864,-55.393 -4.232,-80.459c4.066,-6.52 9.994,-15.3 11.444,-16.951c6.053,-6.889 7.606,-17.659 4.765,-33.044c-5.446,-29.494 6.607,-49.488 32.209,-53.428c4.351,-0.67 4.882,31.085 0.608,36.372c-11.258,13.924 -11.023,35.623 0.506,46.798c2.914,2.824 3.065,4.991 2.049,29.482c-0.492,11.866 -0.492,11.866 -6.399,11.866c-16.873,-0 -19.095,21.722 -3.281,32.083c3.211,2.104 59.562,1.729 64.013,-0.426c17.377,-8.413 14.961,-31.657 -3.291,-31.657c-8.496,-0 -8.355,0.159 -8.355,-9.512c-0,-5.457 -0.222,-5.332 5.72,-3.225c25.119,8.908 39.163,-4.715 31.679,-30.729c-2.444,-8.495 -2.488,-9.437 -0.176,-3.815c0.979,2.379 4.472,8.821 7.764,14.314c17.697,29.538 21.513,44.487 16.543,64.816c-9.796,40.076 -41.528,56.319 -100.402,51.395Zm-105.425,-31.767c-1.377,-22.041 0.051,-242.706 1.582,-244.426c5.177,-5.819 18.92,-5.243 22.224,0.931c0.822,1.535 1.356,111.043 1.022,209.345c-0.032,9.324 -0.032,22.673 0,29.667c0.058,12.715 0.058,12.715 -12.122,12.807c-12.18,0.092 -12.18,0.092 -12.706,-8.324Zm223.686,7.663c-1.358,-3.733 -0.529,-250.239 0.846,-251.459c6.572,-5.831 19.145,-6.138 22.597,-0.553c0.738,1.193 1.487,235.762 0.783,245.147c-0.538,7.169 -0.538,7.169 -12.244,7.394c-7.328,0.14 -11.81,-0.057 -11.982,-0.529Zm-264.447,-14.819c-3.356,-1.625 -4.67,-9.626 -1.83,-11.146c2.461,-1.317 4.587,-0.878 6.888,1.422c4.97,4.971 0.978,12.647 -5.058,9.724Zm-19.832,-1.986c-4.853,-4.853 -0.921,-13.588 6.159,-13.68c2.74,-0.036 3.605,1.816 3.605,7.717c0,7.481 -5.119,10.608 -9.764,5.963Zm361.754,0.937c-0.924,-0.647 -2.341,-2.427 -3.148,-3.955c-0.807,-1.528 -1.482,-2.22 -1.5,-1.538c-0.189,7.021 -11.69,7.039 -11.668,0.018c0.013,-4.471 0.636,-5.249 4.622,-5.773c1.992,-0.262 5.243,-0.974 7.224,-1.582c9.548,-2.932 18.127,5.578 11.9,11.805c-2.453,2.453 -4.907,2.792 -7.43,1.025l0,0Zm-324.235,-28.393c-12.048,-11.668 -28.448,-37.824 -36.339,-57.957c-14.364,-36.649 -16.965,-73.397 -8.283,-117.016c3.618,-18.178 11.756,-35.94 16.012,-34.951c1.506,0.35 5.148,0.645 8.093,0.655c5.355,0.018 5.355,0.018 2.058,6.37c-5.89,11.344 -11.606,30.514 -13.883,46.554c-7.067,49.778 6.116,100.952 35.376,137.322c4.583,5.696 5.123,7.899 5.313,21.66c0.077,5.561 0.138,5.58 -8.347,-2.637Zm124.094,3.788c-3.995,-5.704 2.472,-11.019 8.06,-6.624c1.697,1.335 2.005,1.371 2.864,0.335c2.872,-3.46 6.437,-3.071 7.16,0.783c0.966,5.148 -1.801,7.599 -6.42,5.685c-1.832,-0.758 -2.491,-0.709 -3.92,0.292c-2.543,1.781 -6.328,1.55 -7.744,-0.471Zm37.592,-0.175c-2.157,-2.157 -2.213,-2.603 -0.758,-6.086c1.948,-4.662 10.963,-2.482 10.963,2.65c-0,5.018 -6.451,7.19 -10.205,3.436Zm123.819,-8.364c-0.23,-10.397 -0.23,-10.397 5.467,-18.362c3.134,-4.38 6.991,-10.337 8.571,-13.238c5.387,-9.889 10.969,-21.089 11.826,-23.731c0.471,-1.45 1.636,-4.193 2.588,-6.095c11.168,-22.293 14.974,-84.42 6.661,-108.697c-1.012,-2.955 -2.874,-8.889 -4.138,-13.187c-1.264,-4.298 -3.632,-10.702 -5.263,-14.231c-1.63,-3.529 -2.964,-6.489 -2.964,-6.576c-0,-0.088 2.797,-0.357 6.215,-0.599c3.419,-0.242 6.779,-0.656 7.468,-0.92c3.337,-1.283 13.676,27.132 16.861,46.338c9.313,56.162 -5.088,113.196 -39.322,155.737c-11.193,13.908 -13.727,14.554 -13.97,3.561Zm-137.572,8.556c-1.149,-1.15 -1.165,-5.232 -0.029,-7.725c1.98,-4.346 8.166,-1.349 8.166,3.958c-0,3.572 -1.063,4.671 -4.52,4.671c-1.492,-0 -3.119,-0.407 -3.617,-0.904l0,-0Zm-13.711,-36.765c-0,-18.035 -0.273,-17.044 4.426,-16.104c4.526,0.905 3.519,32.678 -1.036,32.678c-3.39,-0 -3.39,-0 -3.39,-16.574Zm15.821,0.852c-0,-15.722 -0,-15.722 3.187,-16.149c3.92,-0.526 3.347,-2.806 3.988,15.862c0.551,16.009 0.551,16.009 -3.312,16.009c-3.863,-0 -3.863,-0 -3.863,-15.722Zm17.338,-20.805c-0.81,-0.976 -0.108,-2.045 4.602,-7.003c6.053,-6.373 6.675,-6.516 4.846,-1.111c-2.145,6.34 -7.269,10.74 -9.448,8.114Zm-17.079,-30.292c0.216,-12.765 0.373,-23.549 0.35,-23.963c-0.405,-7.241 -0.582,-121.435 -0.207,-133.537c0.519,-16.763 0.519,-16.763 3.373,-16.763c3.902,0 3.904,0.068 3.619,107.734c-0.237,89.275 -0.237,89.275 -3.882,89.507c-3.645,0.233 -3.645,0.233 -3.253,-22.978Zm-12.948,21.576c-3.814,-0.836 -3.775,-0.597 -3.331,-20.032c0.416,-18.188 0.416,-18.188 3.062,-18.618c3.986,-0.647 3.917,-0.986 3.917,19.479c0,20.533 0.103,19.993 -3.648,19.171Zm64.672,-5.987c0,-0.552 0.226,-0.778 0.502,-0.502c0.277,0.276 0.277,0.728 0,1.004c-0.276,0.277 -0.502,0.051 -0.502,-0.502Zm-1.476,-6.592c-3.357,-15.117 -13.089,-28.079 -25.446,-33.893c-7.483,-3.521 -6.955,-2.15 -6.969,-18.105c-0.011,-13.763 -0.011,-13.763 2.061,-13.306c26.982,5.959 39.333,26.509 32.572,54.192c-1.203,4.924 -1.534,7.966 -1.211,11.112c0.245,2.383 0.336,4.332 0.201,4.332c-0.135,-0 -0.679,-1.949 -1.208,-4.332Zm-66.718,-72.325c-0.312,-19.371 -0.304,-50.985 0.019,-70.252c0.504,-30.145 0.673,-36.517 1.063,-40.118c0.034,-0.311 1.417,-0.565 3.075,-0.565c3.013,0 3.013,0 3.013,73.078c0,73.078 0,73.078 -3.301,73.078c-3.301,-0 -3.301,-0 -3.869,-35.221l0,0Zm-136.454,-9.039c-15.082,-0.262 -13.681,0.944 -13.224,-11.376c0.317,-8.549 0.317,-8.549 6.703,-8.287c6.385,0.263 6.385,0.263 6.129,-6.33c-0.256,-6.593 -0.256,-6.593 7.422,-6.592c4.222,-0 7.821,0.254 7.997,0.565c0.769,1.359 -0.457,32.579 -1.273,32.415c-0.463,-0.094 -6.652,-0.271 -13.754,-0.395Zm64.024,-0.798c-1.943,-0.277 -2.996,-10.75 -2.341,-23.276c0.448,-8.565 0.173,-8.271 8.11,-8.661c6.404,-0.315 6.404,-0.315 6.149,6.51c-0.255,6.824 -0.255,6.824 23.26,6.615c23.515,-0.21 23.515,-0.21 23.193,8.829c-0.178,4.972 -0.589,9.304 -0.914,9.627c-0.548,0.544 -53.821,0.874 -57.457,0.356Zm113.502,-0.012c-3.39,-0.51 -3.39,-0.51 -3.601,-9.663c-0.241,-10.463 0.797,-10.77 33.203,-9.81c18.032,0.535 16.826,1.081 15.69,-7.113c-0.42,-3.035 -0.697,-5.542 -0.615,-5.572c0.082,-0.029 3.625,0.076 7.872,0.235c7.722,0.289 7.722,0.289 7.722,16.04c-0,15.75 -0,15.75 -11.556,15.75c-6.355,0 -19.153,0.145 -28.44,0.321c-9.286,0.177 -18.41,0.092 -20.275,-0.188Zm106.98,-13.645c0,-18.003 -0.074,-17.792 6.538,-18.47c2.827,-0.29 5.912,-0.71 6.856,-0.934c1.717,-0.407 1.717,-0.407 1.2,6.938c-0.516,7.345 -0.516,7.345 6.006,7.003c6.522,-0.343 6.522,-0.343 6.522,9.693c0,10.036 0,10.036 -13.561,10.036c-13.561,-0 -13.561,-0 -13.561,-14.266Zm-200.399,-50.606c-3.107,-0.251 -9.21,-0.842 -13.561,-1.312c-4.35,-0.47 -25.709,-1.009 -47.463,-1.199c-52.532,-0.457 -48.643,0.411 -48.127,-10.737c0.231,-4.984 -0.082,-5.235 -7.358,-5.917c-3.627,-0.34 -5.81,-0.926 -6.508,-1.745c-1.347,-1.584 -4.156,-8.746 -4.768,-12.158c-0.711,-3.965 -2.171,-5.788 -5.067,-6.332c-3.222,-0.604 -3.857,-1.853 -7.894,-15.516c-4.691,-15.877 -4.83,-14.736 1.367,-11.148c20.049,11.608 64.095,23.854 99.45,27.652c22.76,2.444 60.461,5.03 77.787,5.334c0.687,0.012 0.753,21.343 0.085,27.733c-0.48,4.59 -0.48,4.59 -4.332,4.991c-6.072,0.634 -27.388,0.858 -33.611,0.354Zm93.984,-0.461c-3.578,-0.294 -3.578,-0.294 -3.586,-14.002c-0.005,-7.539 -0.211,-14.931 -0.458,-16.426c-0.45,-2.718 -0.45,-2.718 13.381,-3.24c40.988,-1.547 70.252,-4.16 94.065,-8.399c31.562,-5.618 60.293,-15.19 74.137,-24.698c4.021,-2.762 4.046,-2.455 0.53,6.539c-1.697,4.339 -3.603,10.209 -4.236,13.045c-1.664,7.451 -2.171,8.291 -6.254,10.359c-3.905,1.98 -5.179,4.628 -6.596,13.717c-0.728,4.667 -1.014,4.851 -8.685,5.593c-3.896,0.377 -7.122,0.694 -7.169,0.706c-0.047,0.011 -0.255,3.251 -0.461,7.199c-0.207,3.948 -0.622,7.423 -0.923,7.722c-0.3,0.299 -16.209,0.439 -35.352,0.311c-22.409,-0.15 -37.612,0.071 -42.688,0.621c-7.587,0.821 -58.355,1.558 -65.705,0.953Zm-44.028,-51.899c-3.465,-3.503 -5.363,-59.027 -2.116,-61.918c0.418,-0.372 8.342,-0.516 17.807,-0.324c17.054,0.346 17.054,0.346 17.61,26.29c0.678,31.661 0.805,30.513 -3.869,35.182c-5.841,5.836 -23.95,6.31 -29.432,0.77Zm9.507,-9.815c2.05,-2.607 1.971,-4.454 -0.288,-6.713c-3.545,-3.544 -7.945,-1.607 -7.945,3.499c0,4.964 5.245,7.012 8.233,3.214Zm17.716,0.311c3.378,-4.822 -2.213,-10.743 -6.49,-6.873c-1.583,1.433 -1.881,6.236 -0.474,7.643c1.551,1.551 5.656,1.097 6.964,-0.77Zm-18.123,-14.053c2.005,-2.216 2.436,-6.615 0.823,-8.398c-3.008,-3.324 -9.402,-0.34 -9.402,4.386c-0,4.282 5.857,7.02 8.579,4.012Zm17.76,-0.236c3.385,-3.633 1.243,-9.652 -3.435,-9.652c-4.833,0 -6.373,5.347 -2.621,9.099c2.632,2.632 4.003,2.757 6.056,0.553Zm-17.17,-16.925c3.049,-2.76 0.805,-8.548 -3.314,-8.548c-3.004,0 -5.102,1.907 -5.102,4.637c0,4.293 5.282,6.747 8.416,3.911Zm17.199,-0.26c3.156,-3.156 1.078,-8.288 -3.356,-8.288c-4.568,0 -5.969,5.262 -2.193,8.233c2.482,1.952 3.64,1.963 5.549,0.055l0,-0Zm-121.671,36.133c-2.486,-0.309 -6.47,-0.598 -8.852,-0.643c-5.51,-0.104 -5.483,-0.186 2.136,-6.485c10.7,-8.846 28.959,-19.528 44.254,-25.89c5.119,-2.13 20.272,-7.029 20.547,-6.643c4.239,5.961 -0.079,15.813 -7.985,18.22c-7.344,2.236 -27.931,12.846 -36.764,18.946c-4.977,3.438 -5.279,3.495 -13.336,2.495Zm203.036,-4.135c-6.1,-4.048 -23.909,-13.091 -36.26,-18.414c-5.749,-2.477 -5.749,-2.477 -5.651,-9.915c0.061,-4.593 0.387,-7.336 0.852,-7.171c0.414,0.147 4.483,1.503 9.04,3.015c13.472,4.468 37.632,17.171 48.809,25.664c3.316,2.52 7.523,5.642 9.349,6.938c4.117,2.923 3.885,3.008 -9.941,3.666c-9.794,0.466 -9.794,0.466 -16.198,-3.783Zm-64.037,1.15c-3.029,-3.029 -2.099,-7.533 1.556,-7.533c5.913,-0 8.08,3.789 4.234,7.402c-2.169,2.038 -3.846,2.076 -5.79,0.131Zm-64.791,-0.753c-2.942,-2.943 -0.75,-6.78 3.873,-6.78c3.799,-0 4.414,0.641 4.414,4.6c0,4.249 -4.923,5.544 -8.287,2.18Zm62.979,-17.044c-0.799,-4.971 0.314,-7.401 3.514,-7.672c3.489,-0.295 5.836,1.849 5.82,5.316c-0.026,5.525 -8.482,7.658 -9.334,2.356Zm-60.524,1.446c-6.645,-1.282 -4.643,-10.365 2.177,-9.876c3.279,0.236 3.279,0.236 3.516,3.566c0.464,6.489 -0.31,7.348 -5.693,6.31Zm-0.948,-19.279c-6.713,-3.395 -2.35,-12.332 4.708,-9.645c1.875,0.713 2.072,1.144 2.072,4.513c0,6.205 -1.866,7.618 -6.78,5.132Zm62.719,0.476c-1.945,-0.785 -1.208,-9.2 0.85,-9.716c3.264,-0.819 6.014,-0.058 7.152,1.98c2.763,4.945 -2.444,9.979 -8.002,7.736Z" style="fill:#fff;fill-rule:nonzero;"/><g><g><path d="M744.929,325.266l-79.934,-115.814c-0.701,-1.014 -0.713,-2.355 -0.03,-3.382l72.031,-108.441c1.305,-1.964 -0.103,-4.588 -2.461,-4.588l-56.267,-0c-1.01,-0 -1.952,0.515 -2.496,1.367l-57.861,90.588c-1.599,2.503 -5.476,1.37 -5.476,-1.6l-0,-87.377c-0,-1.645 -1.335,-2.98 -2.981,-2.98l-54.31,0c-1.642,0 -2.975,1.332 -2.975,2.976l-0,230.783c-0,1.633 1.323,2.955 2.954,2.955l54.337,-0c1.641,-0 2.973,-1.331 2.973,-2.973l0,-89.211c0,-2.996 3.942,-4.095 5.491,-1.53l55.741,92.289c0.535,0.884 1.492,1.425 2.525,1.425l66.381,-0c2.311,-0 3.669,-2.59 2.358,-4.487l0,0Z" style="fill:#fff;fill-rule:nonzero;"/><path d="M807.475,148.412l-50.075,0c-1.579,0 -2.861,1.282 -2.861,2.861l-0,173.471c-0,1.579 1.282,2.861 2.861,2.861l50.075,0c1.581,0 2.862,-1.282 2.862,-2.861l-0,-173.471c-0,-1.579 -1.282,-2.861 -2.862,-2.861l0,0Zm0,-56.437l-50.075,-0c-1.579,-0 -2.861,1.281 -2.861,2.861l-0,36.565c-0,1.579 1.282,2.861 2.861,2.861l50.075,0c1.581,0 2.862,-1.282 2.862,-2.861l-0,-36.565c-0,-1.581 -1.282,-2.861 -2.862,-2.861l0,-0Z" style="fill:#fff;fill-rule:nonzero;"/><path d="M1023.5,91.873l-50.075,-0c-1.579,-0 -2.861,1.282 -2.861,2.861l-0,61.902c-0,1.103 -1.186,1.775 -2.146,1.233c-14.355,-8.114 -30.573,-12.379 -47.214,-12.379c-52.462,0 -95.143,42.092 -95.143,93.83c0,51.737 42.681,93.829 95.143,93.829c16.642,0 32.861,-4.266 47.214,-12.38c0.958,-0.542 2.146,0.13 2.146,1.233l-0,2.641c-0,1.58 1.282,2.862 2.861,2.862l50.075,-0c1.581,-0 2.862,-1.282 2.862,-2.862l-0,-229.909c-0,-1.581 -1.281,-2.861 -2.862,-2.861l0,-0Zm-93.712,190.481c-24.062,0 -43.637,-19.306 -43.637,-43.034c0,-23.73 19.575,-43.035 43.637,-43.035c24.062,0 40.774,19.305 40.774,43.035c0,23.728 -16.712,43.034 -40.774,43.034Z" style="fill:#fff;fill-rule:nonzero;"/><path d="M1337,199.181c-0.146,-1.552 -1.451,-2.731 -3.011,-2.731l-123.824,-0c-1.641,-0 -2.973,1.329 -2.977,2.97l-0.096,45.408c-0.003,1.656 1.338,3 2.994,3l56.804,0c2.351,0 3.699,2.677 2.299,4.566c-12.713,17.16 -32.048,27.002 -53.048,27.002c-36.683,-0 -66.528,-30.505 -66.528,-67.999c-0,-37.497 29.845,-67.999 66.528,-67.999c19.186,-0 37.529,8.608 50.098,23.273c1.002,1.167 2.75,1.332 3.983,0.412l39.017,-29.139c1.83,-1.367 2.144,-3.979 0.709,-5.756c-10.456,-12.942 -23.48,-23.729 -38.006,-31.424c-17.352,-9.193 -36.126,-13.854 -55.801,-13.854c-67.056,-0 -121.611,55.845 -121.611,124.487c0,68.641 54.555,124.486 121.611,124.486c19.675,0 38.449,-4.661 55.801,-13.853c16.563,-8.775 31.172,-21.565 42.248,-36.99c8.196,-11.416 14.375,-24.05 18.366,-37.555c3.448,-11.672 5.196,-23.816 5.196,-36.09c0,-3.597 -0.449,-8.985 -0.752,-12.214l-0,0Z" style="fill:#fff;fill-rule:nonzero;"/><path d="M1512.43,148.412l-53.44,0c-1.58,0 -2.862,1.282 -2.862,2.861l0,98.023c0,6.795 0,15.25 -2.899,21.452c-2.535,5.707 -10.521,9.253 -20.836,9.253c-5.555,-0 -9.88,-1.276 -13.226,-3.899c-2.052,-1.608 -3.75,-3.767 -5.029,-6.378c-2.787,-6.158 -3.163,-13.782 -3.163,-20.428l-0,-98.023c-0,-1.579 -1.282,-2.861 -2.862,-2.861l-53.436,0c-1.579,0 -2.861,1.282 -2.861,2.861l-0,100.845c-0,26.413 3.082,41.299 21.351,59.673l0.007,0.007c1.236,1.227 2.598,2.423 4.034,3.546c0.281,0.226 19.073,14.981 43.956,14.981c11.18,-0 23.59,-2.98 36.102,-11.592c0.942,-0.649 2.227,0.039 2.227,1.183l0,4.828c0,1.579 1.282,2.861 2.862,2.861l50.075,0c1.579,0 2.861,-1.282 2.861,-2.861l0,-173.471c0,-1.579 -1.282,-2.861 -2.861,-2.861l-0,0Z" style="fill:#fff;fill-rule:nonzero;"/><path d="M1588.82,148.412l-50.075,0c-1.58,0 -2.862,1.282 -2.862,2.861l0,173.471c0,1.579 1.282,2.861 2.862,2.861l50.075,0c1.581,0 2.861,-1.282 2.861,-2.861l0,-173.471c0,-1.579 -1.282,-2.861 -2.861,-2.861l-0,0Zm-0,-56.437l-50.075,-0c-1.58,-0 -2.862,1.281 -2.862,2.861l0,36.565c0,1.579 1.282,2.861 2.862,2.861l50.075,0c1.581,0 2.861,-1.282 2.861,-2.861l0,-36.565c0,-1.581 -1.282,-2.861 -2.861,-2.861l-0,-0Z" style="fill:#fff;fill-rule:nonzero;"/><path d="M1714.7,281.015l-9.74,0c-5.312,0 -9.301,-1.322 -11.86,-3.929c-4.371,-4.453 -4.122,-11.913 -3.941,-17.358l0.039,-1.241c0.013,-0.446 0.02,-44.406 0.023,-59.285c-0,-1.579 1.282,-2.85 2.861,-2.85l18.6,0c1.579,0 2.861,-1.281 2.861,-2.861l0,-42.396c0,-1.58 -1.282,-2.862 -2.861,-2.862l-18.6,0c-1.579,0 -2.861,-1.282 -2.861,-2.861l-0,-49.155c-0,-1.58 -1.282,-2.862 -2.862,-2.862l-50.075,0c-1.579,0 -2.861,1.282 -2.861,2.862l-0,49.155c-0,1.579 -1.282,2.861 -2.862,2.861l-18.599,0c-1.579,0 -2.861,1.282 -2.861,2.862l-0,42.395c-0,1.579 1.282,2.861 2.861,2.861l18.599,0c1.58,0 2.862,1.281 2.862,2.861l-0,86.037c-0,27.937 16.084,43.549 46.511,45.147c0.242,0.013 0.567,0.019 0.967,0.019c4.993,-0 21.418,-0.934 27.559,-1.295c1.349,-0.079 2.453,-1.091 2.655,-2.428l6.413,-42.389c0.263,-1.731 -1.078,-3.288 -2.828,-3.288l0,0Z" style="fill:#fff;fill-rule:nonzero;"/><path d="M1922.13,148.312l-50.075,-0c-1.579,-0 -2.861,1.282 -2.861,2.861l-0,5.463c-0,1.103 -1.186,1.775 -2.146,1.233c-14.355,-8.114 -30.573,-12.379 -47.214,-12.379c-52.461,0 -95.143,42.092 -95.143,93.83c0,51.737 42.682,93.829 95.143,93.829c16.642,0 32.861,-4.266 47.214,-12.38c0.958,-0.542 2.146,0.13 2.146,1.233l-0,2.641c-0,1.58 1.282,2.862 2.861,2.862l50.075,-0c1.581,-0 2.862,-1.282 2.862,-2.862l-0,-173.47c-0,-1.581 -1.281,-2.861 -2.862,-2.861l0,-0Zm-93.712,134.042c-24.061,0 -43.637,-19.306 -43.637,-43.034c0,-23.73 19.576,-43.035 43.637,-43.035c24.062,0 40.774,19.305 40.774,43.035c0,23.728 -16.712,43.034 -40.774,43.034Z" style="fill:#fff;fill-rule:nonzero;"/><path d="M2041.42,148.425c-11.826,0.154 -25.867,1.68 -37.736,9.065c-0.949,0.591 -2.174,-0.096 -2.174,-1.213l0,-5.002c0,-1.58 -1.282,-2.862 -2.861,-2.862l-50.075,0c-1.581,0 -2.862,1.282 -2.862,2.862l0,173.47c0,1.58 1.281,2.861 2.862,2.861l53.44,0c1.58,0 2.861,-1.281 2.861,-2.861l0,-100.843c0,-6.944 0,-12.43 2.899,-18.63c1.07,-2.408 4.797,-7.37 11.243,-8.925c5.775,-1.392 15.572,-0.744 20.478,-0.286c1.631,0.151 3.044,-1.096 3.111,-2.733l1.709,-41.92c0.068,-1.643 -1.252,-3.003 -2.895,-2.983l0,-0Z" style="fill:#fff;fill-rule:nonzero;"/><path d="M2240.93,102.43c-11.251,-4.956 -25.887,-9.541 -56.543,-9.541l-68.924,-0c-1.641,-0 -2.971,1.331 -2.971,2.972l-0,231.119c-0,1.615 1.31,2.926 2.926,2.926l70.749,-0c35.499,-0 46.349,-5.307 58.915,-11.453c19.485,-9.53 35.973,-24.394 47.68,-42.986c12.027,-19.099 18.385,-41.25 18.385,-64.06c-0.002,-47.414 -27.563,-90.19 -70.217,-108.977l0,0Zm-5.747,153.9c-11.092,11.364 -33.609,18.423 -58.764,18.423l-3.183,0c-1.697,0 -3.072,-1.375 -3.072,-3.072l0,-121.126c0,-1.638 1.306,-2.97 2.944,-3c14.542,-0.27 78.029,2.079 78.458,63.699c0,18.51 -5.666,34.096 -16.383,45.076l-0,-0Z" style="fill:#fff;fill-rule:nonzero;"/><path d="M2414.07,145.569c-52.461,0 -95.142,42.092 -95.142,93.829c-0,51.739 42.681,93.83 95.142,93.83c52.462,-0 95.143,-42.091 95.143,-93.83c0,-51.737 -42.68,-93.829 -95.143,-93.829l0,0Zm0,134.735c-22.871,0 -41.477,-18.35 -41.477,-40.906c-0,-22.555 18.606,-40.905 41.477,-40.905c22.872,-0 41.478,18.35 41.478,40.905c0,22.556 -18.606,40.906 -41.478,40.906Z" style="fill:#fff;fill-rule:nonzero;"/><path d="M2575.53,91.975l-50.074,0c-1.583,0 -2.864,1.282 -2.864,2.861l-0,36.566c-0,1.579 1.281,2.861 2.864,2.861l50.074,-0c1.58,-0 2.861,-1.282 2.861,-2.861l0,-36.566c0,-1.579 -1.281,-2.861 -2.861,-2.861Zm0,56.437l-50.074,-0c-1.579,-0 -2.864,1.281 -2.864,2.861l0.027,169.323l0.037,1.241c0.18,5.447 0.431,12.905 -3.942,17.359c-2.556,2.606 -6.549,3.928 -11.858,3.928l-4.467,0c-1.441,0 -2.654,1.072 -2.838,2.502l-5.355,42.261c-0.214,1.701 1.091,3.213 2.81,3.22c5.281,0.03 15.959,0.085 23.559,0.085c5.451,-0 9.989,-0.027 11.315,-0.095c13.983,-0.736 46.511,-6.743 46.511,-46.559l0,-193.265c0,-1.58 -1.281,-2.861 -2.861,-2.861l0,-0Z" style="fill:#fff;fill-rule:nonzero;"/><path d="M2685.93,145.569c-52.461,0 -95.142,42.092 -95.142,93.829c-0,51.739 42.681,93.83 95.142,93.83c52.462,-0 95.143,-42.091 95.143,-93.83c-0,-51.737 -42.68,-93.829 -95.143,-93.829l0,0Zm0,134.735c-22.871,0 -41.478,-18.35 -41.478,-40.906c0,-22.555 18.607,-40.905 41.478,-40.905c22.872,-0 41.478,18.35 41.478,40.905c0,22.556 -18.606,40.906 -41.478,40.906Z" style="fill:#fff;fill-rule:nonzero;"/></g><g><path d="M616.773,466.873l-23.459,-68.272l-24.931,68.272l48.39,-0Zm-34.399,-91.205l23.669,0l56.069,154.533l-22.932,-0l-15.675,-46.286l-61.118,-0l-16.727,46.286l-21.46,-0l58.174,-154.533Z" style="fill:#fff;fill-rule:nonzero;"/><path d="M690.62,475.183c0,12.063 2.56,22.162 7.68,30.297c5.119,8.135 13.325,12.203 24.616,12.203c8.766,-0 15.972,-3.77 21.617,-11.309c5.646,-7.539 8.469,-18.357 8.469,-32.453c-0,-14.236 -2.911,-24.774 -8.732,-31.611c-5.82,-6.838 -13.009,-10.257 -21.565,-10.257c-9.538,0 -17.269,3.647 -23.195,10.94c-5.926,7.294 -8.89,18.024 -8.89,32.19Zm28.509,-59.646c8.626,0 15.849,1.824 21.67,5.471c3.366,2.103 7.188,5.785 11.466,11.045l0,-56.911l18.199,0l0,155.059l-17.042,-0l0,-15.674c-4.418,6.943 -9.642,11.957 -15.674,15.043c-6.031,3.086 -12.939,4.628 -20.723,4.628c-12.554,0 -23.424,-5.277 -32.611,-15.832c-9.187,-10.554 -13.781,-24.598 -13.781,-42.131c0,-16.41 4.191,-30.629 12.571,-42.657c8.381,-12.027 20.356,-18.041 35.925,-18.041Z" style="fill:#fff;fill-rule:nonzero;"/><path d="M798.446,417.536l18.725,0l0,15.99c4.489,-5.54 8.556,-9.573 12.203,-12.098c6.242,-4.278 13.325,-6.417 21.25,-6.417c8.976,0 16.2,2.209 21.67,6.628c3.086,2.524 5.891,6.241 8.416,11.15c4.207,-6.031 9.152,-10.502 14.832,-13.412c5.681,-2.91 12.063,-4.366 19.146,-4.366c15.148,0 25.457,5.471 30.927,16.411c2.946,5.891 4.419,13.816 4.419,23.774l-0,75.005l-19.672,-0l0,-78.266c0,-7.504 -1.876,-12.658 -5.628,-15.464c-3.752,-2.805 -8.328,-4.208 -13.728,-4.208c-7.434,0 -13.833,2.49 -19.198,7.469c-5.365,4.98 -8.048,13.29 -8.048,24.932l0,65.537l-19.251,-0l0,-73.532c0,-7.644 -0.911,-13.22 -2.735,-16.726c-2.875,-5.26 -8.24,-7.89 -16.095,-7.89c-7.153,0 -13.658,2.77 -19.514,8.311c-5.855,5.54 -8.783,15.569 -8.783,30.086l-0,59.751l-18.936,-0l0,-112.665Z" style="fill:#fff;fill-rule:nonzero;"/><path d="M977.911,418.062l19.251,0l-0,112.139l-19.251,-0l-0,-112.139Zm-0,-42.394l19.251,0l-0,21.46l-19.251,0l-0,-21.46Z" style="fill:#fff;fill-rule:nonzero;"/><path d="M1025.78,417.536l17.988,0l0,15.99c5.33,-6.592 10.976,-11.326 16.937,-14.202c5.961,-2.875 12.588,-4.313 19.882,-4.313c15.99,0 26.79,5.576 32.4,16.727c3.086,6.101 4.629,14.832 4.629,26.193l-0,72.27l-19.251,-0l0,-71.007c0,-6.873 -1.017,-12.413 -3.051,-16.621c-3.366,-7.013 -9.467,-10.52 -18.304,-10.52c-4.488,0 -8.17,0.456 -11.045,1.368c-5.19,1.543 -9.748,4.628 -13.676,9.257c-3.156,3.717 -5.207,7.556 -6.154,11.519c-0.947,3.962 -1.42,9.625 -1.42,16.989l0,59.015l-18.935,-0l-0,-112.665Z" style="fill:#fff;fill-rule:nonzero;"/></g></g></g></svg>
