{
  "asset": {
    "version": "2.0",
    "generator": "THREE.GLTFExporter"
  },
  "scenes": [
    {
      "nodes": [
        0
      ]
    }
  ],
  "scene": 0,
  "nodes": [
    {
      "children": [
        5
      ],
      "matrix": [
        0.01,
        0,
        0,
        0,
        0,
        0.01,
        0,
        0,
        0,
        0,
        0.01,
        0,
        0,
        0,
        0,
        1
      ]
    },
    {
      "matrix": [
        2.220446049250313e-16,
        -2.220446049250313e-16,
        1,
        0,
        1,
        0,
        -2.220446049250313e-16,
        0,
        0,
        1,
        2.220446049250313e-16,
        0,
        -143.83443294570068,
        1.0000000000000129,
        -58.3762131408823,
        1
      ],
      "name": "bookmark",
      "mesh": 0
    },
    {
      "matrix": [
        0.5883484054145521,
        0.39223227027636803,
        -0.7071067811865475,
        0,
        -0.554700196225229,
        0.8320502943378437,
        0,
        0,
        0.588348405414552,
        0.392232270276368,
        0.7071067811865476,
        0,
        0,
        0,
        0,
        1
      ],
      "name": "Directional Light",
      "extensions": {
        "KHR_lights_punctual": {
          "light": 0
        }
      }
    },
    {
      "matrix": [
        0.7071067872699206,
        -1.2166747220820895e-8,
        -0.7071067751031742,
        0,
        -0.408248279927151,
        0.8164965809277259,
        -0.4082483010005749,
        0,
        0.5773502691896261,
        0.5773502691896257,
        0.5773502691896254,
        0,
        591.7493824446617,
        571.6643146041025,
        577.9133487487156,
        1
      ],
      "camera": 0
    },
    {
      "matrix": [
        1,
        0,
        0,
        0,
        0,
        1,
        0,
        0,
        0,
        0,
        1,
        0,
        0,
        1,
        0,
        1
      ],
      "name": "Default Ambient Light"
    },
    {
      "name": "Scene 1",
      "children": [
        1,
        2,
        3,
        4
      ]
    }
  ],
  "bufferViews": [
    {
      "buffer": 0,
      "byteOffset": 0,
      "byteLength": 29016,
      "target": 34962,
      "byteStride": 12
    },
    {
      "buffer": 0,
      "byteOffset": 29016,
      "byteLength": 29016,
      "target": 34962,
      "byteStride": 12
    },
    {
      "buffer": 0,
      "byteOffset": 58032,
      "byteLength": 19344,
      "target": 34962,
      "byteStride": 8
    },
    {
      "buffer": 0,
      "byteOffset": 77376,
      "byteLength": 51312,
      "target": 34963
    }
  ],
  "buffers": [
    {
      "byteLength": 128688,
      "uri": "data:application/octet-stream;base64,"
    }
  ],
  "accessors": [
    {
      "bufferView": 0,
      "componentType": 5126,
      "count": 2418,
      "max": [
        117.80976867675781,
        299.87255859375,
        13
      ],
      "min": [
        0.05225739628076553,
        0.17509473860263824,
        0
      ],
      "type": "VEC3"
    },
    {
      "bufferView": 1,
      "componentType": 5126,
      "count": 2418,
      "max": [
        0.9999849200248718,
        0.999910295009613,
        1
      ],
      "min": [
        -1,
        -0.9999971985816956,
        -1
      ],
      "type": "VEC3"
    },
    {
      "bufferView": 2,
      "componentType": 5126,
      "count": 2418,
      "max": [
        1,
        1
      ],
      "min": [
        0,
        0
      ],
      "type": "VEC2"
    },
    {
      "bufferView": 3,
      "componentType": 5125,
      "count": 12828,
      "max": [
        2417
      ],
      "min": [
        0
      ],
      "type": "SCALAR"
    }
  ],
  "meshes": [
    {
      "primitives": [
        {
          "mode": 4,
          "attributes": {
            "POSITION": 0,
            "NORMAL": 1,
            "TEXCOORD_0": 2
          },
          "extras": {
            "parameters": {
              "width": 117.75751098683612,
              "subdivisions": 40,
              "roundness": 8,
              "extrudeBevelSize": 6,
              "extrudeBevelSegments": 5,
              "windingRule": 0,
              "height": 299.69746212190927,
              "depth": 13,
              "shape": {
                "points": [
                  {
                    "fi": 0.4044436382604995,
                    "id": "ef509fe8-e2b4-4b69-9ff4-02d1f223ea41",
                    "data": {
                      "position": [
                        0.05687364035172493,
                        0.15618869123818513
                      ],
                      "controlPrevious": {
                        "position": [
                          0.05687364035172493,
                          0.15618869123818513
                        ]
                      },
                      "controlNext": {
                        "position": [
                          0.05687364035172493,
                          0.15618869123818513
                        ]
                      },
                      "areControlsDirectionsMirrored": true,
                      "roundness": 8
                    }
                  },
                  {
                    "fi": 0.9083679149946395,
                    "id": "1e9a6bb8-1915-4414-9df1-1d62e1e26e06",
                    "data": {
                      "position": [
                        0.05213221876931584,
                        303.1787200668173
                      ],
                      "controlPrevious": {
                        "position": [
                          0.05213221876931584,
                          303.1787200668173
                        ]
                      },
                      "controlNext": {
                        "position": [
                          0.05213221876931584,
                          303.1787200668173
                        ]
                      },
                      "areControlsDirectionsMirrored": true,
                      "roundness": 8
                    }
                  },
                  {
                    "fi": 1.3427239058181002,
                    "id": "650b2472-bab1-40f4-9905-dd2a05fbd0bd",
                    "data": {
                      "position": [
                        58.80274114458364,
                        254.90362817532647
                      ],
                      "controlPrevious": {
                        "position": [
                          58.80274114458364,
                          254.90362817532647
                        ]
                      },
                      "controlNext": {
                        "position": [
                          58.80274114458364,
                          254.90362817532647
                        ]
                      },
                      "areControlsDirectionsMirrored": true,
                      "roundness": 8
                    }
                  },
                  {
                    "fi": 1.9653705047221788,
                    "id": "b5aa32ae-e0e3-47f9-94ca-175de4b30456",
                    "data": {
                      "position": [
                        117.85373138871569,
                        304.1252501539668
                      ],
                      "controlPrevious": {
                        "position": [
                          117.85373138871569,
                          304.1252501539668
                        ]
                      },
                      "controlNext": {
                        "position": [
                          117.85373138871569,
                          304.1252501539668
                        ]
                      },
                      "areControlsDirectionsMirrored": true,
                      "roundness": 8
                    }
                  },
                  {
                    "fi": 2.492130147652585,
                    "id": "8050fd76-4f79-42c6-932f-2b3a87f7373f",
                    "data": {
                      "position": [
                        116.18479012034324,
                        0.4306294863179687
                      ],
                      "controlPrevious": {
                        "position": [
                          116.18479012034324,
                          0.4306294863179687
                        ]
                      },
                      "controlNext": {
                        "position": [
                          116.18479012034324,
                          0.4306294863179687
                        ]
                      },
                      "areControlsDirectionsMirrored": true,
                      "roundness": 8
                    }
                  }
                ],
                "isClosed": true,
                "roundness": 8,
                "shapeHoles": []
              },
              "type": "VectorGeometry"
            },
            "shape": {
              "points": [
                0.05687364035172493,
                0.15618869123818513,
                0.05687364035172493,
                0.15618869123818513,
                0.05687364035172493,
                0.15618869123818513,
                8,
                0.05213221876931584,
                303.1787200668173,
                0.05213221876931584,
                303.1787200668173,
                0.05213221876931584,
                303.1787200668173,
                8,
                58.80274114458364,
                254.90362817532647,
                58.80274114458364,
                254.90362817532647,
                58.80274114458364,
                254.90362817532647,
                8,
                117.85373138871569,
                304.1252501539668,
                117.85373138871569,
                304.1252501539668,
                117.85373138871569,
                304.1252501539668,
                8,
                116.18479012034324,
                0.4306294863179687,
                116.18479012034324,
                0.4306294863179687,
                116.18479012034324,
                0.4306294863179687,
                8
              ],
              "shapeHoles": [],
              "isClosed": true,
              "roundness": 8
            },
            "type": "VectorGeometry"
          },
          "indices": 3
        }
      ]
    }
  ],
  "extensions": {
    "KHR_lights_punctual": {
      "lights": [
        {
          "name": "Directional Light",
          "color": [
            1,
            1,
            1
          ],
          "intensity": 0.7,
          "type": "directional"
        }
      ]
    }
  },
  "cameras": [
    {
      "type": "perspective",
      "perspective": {
        "aspectRatio": 1.3171806167400881,
        "yfov": 0.7853981633974483,
        "zfar": 100000,
        "znear": 70
      }
    }
  ],
  "extensionsUsed": [
    "KHR_lights_punctual"
  ]
}