<svg width="20" height="20" viewBox="0 0 20 20" fill="none" xmlns="http://www.w3.org/2000/svg">

<path id="Vector" d="M14.2309 5.83229L8.2002 11.8711L5.76876 9.43184L5.7688 9.43181L5.7654 9.42853C5.66135 9.32802 5.53853 9.24899 5.40394 9.19595C5.26935 9.14291 5.12563 9.1169 4.98098 9.1194C4.83634 9.1219 4.69361 9.15287 4.56093 9.21054C4.42826 9.2682 4.30824 9.35143 4.20773 9.45548C4.10722 9.55953 4.02819 9.68235 3.97515 9.81694C3.92211 9.95153 3.8961 10.0953 3.8986 10.2399C3.9011 10.3845 3.93207 10.5273 3.98974 10.6599C4.04709 10.7919 4.12975 10.9114 4.23302 11.0115L7.43087 14.2094C7.431 14.2095 7.43112 14.2096 7.43124 14.2098C7.53188 14.3111 7.65156 14.3916 7.78342 14.4465C7.91543 14.5015 8.05703 14.5298 8.20004 14.5298C8.34305 14.5298 8.48465 14.5015 8.61666 14.4465C8.74849 14.3916 8.86815 14.3112 8.96877 14.2098C8.96892 14.2097 8.96906 14.2095 8.96921 14.2094L15.7652 7.41344C15.8733 7.31269 15.9597 7.19088 16.019 7.05548L15.79 6.95518L16.019 7.05548C16.079 6.91844 16.11 6.77045 16.11 6.62084C16.11 6.47123 16.079 6.32324 16.019 6.1862L15.79 6.2865L16.019 6.1862C15.9597 6.05086 15.8734 5.92909 15.7653 5.82837C15.6654 5.72868 15.547 5.64945 15.4167 5.59516C15.2846 5.54016 15.1431 5.51184 15 5.51184C14.857 5.51184 14.7154 5.54016 14.5834 5.59516L14.6796 5.82593L14.5834 5.59516C14.4515 5.65011 14.3318 5.73062 14.2311 5.83204C14.231 5.83213 14.231 5.83221 14.2309 5.83229Z" fill="#0BCEF5" stroke="#0BCEF5" stroke-width="0.5"/>

</svg>
