<svg width="249" height="135" viewBox="0 0 249 135" fill="none" xmlns="http://www.w3.org/2000/svg">
<g filter="url(#filter0_d_5490_8382)">
<path d="M111.639 22.6545C111.94 22.7345 112.659 22.1541 113.795 20.9133C114.948 19.677 116.107 18.4512 117.273 17.2361C118.442 16.0042 119.22 15.4394 119.605 15.5416C120.175 15.6927 120.575 16.0769 120.806 16.694C121.053 17.3156 121.081 17.9866 120.89 18.707C120.757 19.2097 120.064 20.0658 118.81 21.2755C117.561 22.4684 115.986 23.9425 114.086 25.6979C112.186 27.4532 110.68 28.9725 109.568 30.2557C109.226 30.667 108.745 31.0595 108.126 31.4332C107.507 31.8069 106.971 31.9338 106.519 31.8138C105.848 31.6359 105.656 31.0109 105.94 29.9387C106.109 29.3021 107.139 27.9883 109.03 25.9973C109.329 25.6821 109.545 25.4434 109.677 25.2814C109.016 24.801 108.47 24.1541 108.04 23.3407C107.611 22.5272 107.329 21.6634 107.195 20.7491C106.915 18.8279 106.991 17.0547 107.422 15.4296C107.689 14.4244 107.994 13.7161 108.336 13.3048C108.695 12.898 109.226 12.7879 109.93 12.9746C110.298 13.0724 110.506 13.4054 110.552 13.9736C110.603 14.5251 110.578 15.2984 110.475 16.2933C110.372 17.2883 110.357 18.1899 110.43 18.9982C110.524 19.7942 110.68 20.589 110.9 21.3826C111.141 22.1638 111.387 22.5878 111.639 22.6545ZM120.374 32.7731C121.385 32.611 122.388 32.0074 123.383 30.9621C124.378 29.9169 125.017 28.8582 125.302 27.786C125.586 26.7137 125.631 25.9366 125.436 25.4545C124.605 25.6822 123.651 26.3706 122.575 27.5198C121.516 28.6734 120.85 29.7611 120.579 30.7831C120.313 31.7883 120.244 32.4517 120.374 32.7731ZM117.145 30.141C117.701 28.0468 118.873 26.2326 120.66 24.6984C122.465 23.1687 124.004 22.5728 125.277 22.9106C126.551 23.2485 127.503 23.9853 128.134 25.1211C128.77 26.2402 128.918 27.4364 128.581 28.7097C128.247 29.9662 127.606 31.1679 126.656 32.3146C125.706 33.4614 124.571 34.3259 123.251 34.9082C121.935 35.4737 120.657 35.592 119.418 35.263C118.496 35.0185 117.809 34.3969 117.357 33.3982C116.905 32.3995 116.834 31.3137 117.145 30.141ZM139.706 27.4383C139.951 27.055 140.275 26.9167 140.677 27.0234C141.079 27.1301 141.449 27.5958 141.786 28.4205C142.14 29.2496 142.25 29.9155 142.117 30.4181C142.068 30.6024 141.356 31.7315 139.98 33.8056C138.605 35.8796 137.533 37.5228 136.763 38.7352C136.341 39.3766 135.854 39.624 135.301 39.4773C134.966 39.3884 134.713 39.1956 134.54 38.8988C134.389 38.5897 134.383 38.1755 134.52 37.6561C134.658 37.1368 134.954 36.4263 135.409 35.5246C133.025 37.5463 131.322 38.4216 130.3 38.1505C129.764 38.0082 129.21 37.4936 128.639 36.6067C128.072 35.703 127.875 34.9245 128.048 34.2711C128.475 32.6627 129.472 30.7304 131.039 28.4742C132.622 26.2224 133.816 25.2031 134.621 25.4165C135.106 25.5454 135.476 25.8765 135.729 26.4099C135.999 26.9478 136.065 27.4764 135.927 27.9957C135.873 28.1968 135.515 28.7025 134.852 29.5128C132.845 31.9393 131.691 33.7222 131.388 34.8614C131.362 34.962 131.39 35.0233 131.474 35.0456C131.725 35.1122 132.299 34.843 133.195 34.2378C134.112 33.6203 135.193 32.6878 136.439 31.4402C137.705 30.1802 138.795 28.8463 139.706 27.4383ZM143.529 32.3261L144.132 29.4464C144.381 28.5082 144.798 28.1168 145.385 28.2724C145.72 28.3613 146.013 28.5737 146.265 28.9094C146.533 29.2496 146.68 29.71 146.705 30.2906C147.408 29.9391 148.135 29.7015 148.885 29.5777C149.656 29.4416 150.302 29.4425 150.821 29.5803C152.044 29.9048 152.578 30.3602 152.422 30.9466C152.342 31.2482 152.224 31.4588 152.066 31.5785C151.93 31.6858 151.82 31.7641 151.735 31.8134C151.667 31.867 151.542 31.9325 151.36 32.0098C151.199 32.0747 151.079 32.1235 150.998 32.1559C150.546 32.305 150.223 32.4076 150.029 32.4636C149.151 32.7327 148.355 33.1312 147.641 33.6591C146.931 34.1703 146.287 34.9767 145.708 36.0783C144.744 37.885 143.918 39.208 143.229 40.0474C142.561 40.8744 141.959 41.2169 141.423 41.0746C140.904 40.9368 140.577 40.5811 140.442 40.0073C140.324 39.438 140.323 38.9356 140.438 38.5C140.558 38.0476 140.895 37.4197 141.449 36.6162C142.02 35.8172 142.448 35.1149 142.735 34.5094C143.042 33.8916 143.307 33.1638 143.529 32.3261ZM171.296 35.1472C172.167 35.3784 172.825 35.9743 173.269 36.9351C173.735 37.8836 173.85 38.8018 173.615 39.6897C173.237 41.1138 172.607 42.5426 171.724 43.9763C170.863 45.3976 170.045 46.4537 169.269 47.1447C168.511 47.8402 167.847 48.1123 167.277 47.9612C166.725 47.8145 166.553 47.3475 166.762 46.56C166.922 45.9569 167.52 44.8156 168.558 43.1361C169.377 41.7394 169.873 40.7144 170.046 40.061C170.219 39.4076 170.222 39.0587 170.055 39.0142C169.837 38.9564 169.59 39.0076 169.315 39.1676C169.056 39.332 168.837 39.4802 168.659 39.6122C168.48 39.7442 168.263 39.9198 168.008 40.1389C167.774 40.3458 167.561 40.5403 167.369 40.7226C167.198 40.8925 166.968 41.1183 166.678 41.4001C166.409 41.6695 166.187 41.8975 166.012 42.0842C165.842 42.2541 165.62 42.4822 165.347 42.7684C163.015 45.2701 161.405 46.4032 160.517 46.1676C160.166 46.0743 159.802 45.6549 159.425 44.9095C159.054 44.1474 158.906 43.6239 158.981 43.3391C159.03 43.1548 159.252 42.7922 159.647 42.2513C160.062 41.6981 160.363 41.2757 160.548 40.984C160.754 40.6801 160.939 40.3527 161.104 40.0019C161.286 39.6555 161.457 39.2796 161.619 38.8741C161.784 38.4518 161.907 38.1257 161.986 37.8956C162.082 37.6699 162.213 37.3102 162.38 36.8165C163.108 34.6785 163.554 33.5056 163.717 33.2977C163.896 33.0943 164.053 33.0103 164.187 33.0459C164.824 33.2148 165.364 33.6451 165.808 34.3368C166.257 35.0117 166.423 35.567 166.308 36.0026C166.032 37.0413 165.369 38.4613 164.317 40.2625C165.912 38.6415 167.314 37.3457 168.522 36.375C169.752 35.392 170.676 34.9827 171.296 35.1472ZM185.975 44.072C185.757 44.8929 185 45.4811 183.704 45.8367C182.425 46.1967 181.199 46.2212 180.026 45.91C178.854 45.5989 177.912 45.2595 177.203 44.8919C176.932 45.3043 176.737 45.7366 176.617 46.189C176.497 46.6413 176.485 46.988 176.583 47.2291C176.685 47.4534 177.037 47.6455 177.64 47.8055C178.897 48.1389 180 48.3061 180.95 48.3072C181.917 48.3127 182.418 48.3198 182.451 48.3287C183.138 48.511 183.421 48.8283 183.301 49.2806C183.128 49.934 182.419 50.4094 181.175 50.7069C179.947 51.0088 178.621 50.9708 177.197 50.593C175.789 50.2196 174.776 49.4756 174.158 48.3609C173.539 47.2463 173.389 46.0858 173.709 44.8796C174.034 43.6566 174.723 42.4766 175.778 41.3398C176.85 40.2074 178.04 39.3394 179.347 38.736C180.66 38.1158 181.844 37.9457 182.899 38.2257C183.971 38.5102 184.82 39.3002 185.444 40.5957C186.073 41.8745 186.25 43.0332 185.975 44.072ZM183.166 42.8964C183.211 42.7289 183.099 42.4393 182.832 42.0276C182.564 41.616 182.272 41.3679 181.953 41.2834C181.652 41.2034 181.198 41.3251 180.592 41.6486C179.991 41.9553 179.379 42.4027 178.756 42.9907C178.903 43.0475 179.118 43.1137 179.403 43.1892C181.698 43.7982 182.953 43.7006 183.166 42.8964ZM194.564 54.2057C194.4 54.8256 194.041 55.0622 193.488 54.9155C192.584 54.6755 191.688 53.2541 190.8 50.6515C188.303 52.3562 186.728 53.1219 186.075 52.9485C185.623 52.8285 185.245 52.4951 184.941 51.9484C184.659 51.3894 184.563 50.9423 184.652 50.6073C184.674 50.5235 184.905 50.3608 185.346 50.119C187.088 49.1644 188.583 48.2252 189.833 47.3014C189.459 45.8035 189.179 44.3931 188.992 43.0702C188.805 41.7473 188.745 40.9602 188.811 40.7089C188.882 40.4409 188.937 40.2672 188.976 40.1879C189.084 39.9834 189.264 39.9145 189.515 39.9812C190.219 40.1679 190.918 40.5059 191.614 40.9952C192.33 41.4721 192.639 41.8949 192.541 42.2635C192.386 42.8499 192.41 43.771 192.615 45.0268C194.019 43.8572 195.12 43.0552 195.916 42.621C196.73 42.1912 197.338 42.0297 197.74 42.1364C198.159 42.2475 198.555 42.6127 198.929 43.2319C199.319 43.8555 199.463 44.36 199.361 44.7454C199.312 44.9297 199.19 45.0856 198.995 45.2131C198.799 45.3406 198.52 45.4817 198.156 45.6362C197.797 45.774 197.437 45.9475 197.077 46.1567C196.733 46.3704 195.529 47.2255 193.464 48.7221L193.853 50.1971C194.443 52.4339 194.68 53.7701 194.564 54.2057ZM205.852 47.5166C205.598 47.9334 205.228 48.5167 204.742 49.2665C204.277 50.004 203.69 50.9331 202.98 52.0539C202.287 53.1791 201.929 53.7836 201.907 53.8674C201.889 53.9344 202.015 54.0035 202.283 54.0746C202.567 54.1502 203.278 54.1415 204.415 54.0485C205.556 53.9387 206.218 53.9083 206.402 53.9572C206.821 54.0683 206.955 54.4087 206.804 54.9783C206.653 55.548 205.909 56.086 204.574 56.5923C203.242 57.0819 201.965 57.1645 200.742 56.84C200.206 56.6977 199.647 56.2356 199.065 55.4537C198.484 54.6717 198.273 53.9792 198.433 53.376C198.566 52.8734 199.098 51.8846 200.027 50.4096C200.978 48.9223 201.625 47.9015 201.969 47.3473C201.267 47.3582 200.748 47.3192 200.413 47.2303C200.078 47.1414 199.786 46.8219 199.538 46.2718C199.294 45.7049 199.227 45.212 199.338 44.7932C199.481 44.2571 200.899 44.1492 203.594 44.4696C204.325 42.996 204.842 41.6895 205.145 40.5503C205.278 40.0477 205.596 39.863 206.099 39.9964C206.534 40.112 207.016 40.5267 207.544 41.2406C208.093 41.9422 208.299 42.5527 208.161 43.0721C208.027 43.5747 207.73 44.2578 207.267 45.1215C208.08 45.3014 208.696 45.4469 209.115 45.558C210.372 45.8914 210.924 46.3429 210.773 46.9125C210.675 47.2811 210.222 47.5016 209.414 47.5741C208.627 47.6342 207.44 47.6151 205.852 47.5166ZM70.1392 31.8144C70.5413 31.9211 70.9629 32.4275 71.4039 33.3335C71.845 34.2396 71.9766 35.0277 71.7988 35.6979C71.621 36.368 71.2027 37.5392 70.5438 39.2115C69.8893 40.8671 69.3176 42.1769 68.8287 43.1411C65.829 48.837 64.0528 51.6116 63.4999 51.4649C63.1313 51.3671 62.7484 50.9517 62.3511 50.2186C61.975 49.4732 61.838 48.9079 61.9403 48.5226C61.9492 48.489 62.4065 47.6779 63.3122 46.089C64.218 44.5001 65.2526 42.4254 66.4162 39.8649C67.601 37.292 68.5178 34.7825 69.1668 32.3365C69.2957 31.8506 69.6199 31.6766 70.1392 31.8144ZM81.4158 47.3684C81.198 48.1893 80.4412 48.7776 79.1453 49.1332C77.8662 49.4932 76.6403 49.5176 75.4675 49.2064C74.2948 48.8953 73.3537 48.5559 72.6442 48.1884C72.3734 48.6007 72.178 49.0331 72.058 49.4854C71.9379 49.9378 71.9267 50.2845 72.0241 50.5255C72.126 50.7498 72.4785 50.942 73.0816 51.102C74.3382 51.4354 75.4415 51.6026 76.3917 51.6036C77.3586 51.6091 77.8588 51.6163 77.8923 51.6252C78.5792 51.8074 78.8627 52.1247 78.7427 52.5771C78.5693 53.2305 77.8603 53.7059 76.6158 54.0033C75.388 54.3052 74.062 54.2673 72.638 53.8894C71.2307 53.516 70.2176 52.772 69.5987 51.6574C68.9799 50.5427 68.8305 49.3823 69.1505 48.176C69.475 46.953 70.1647 45.7731 71.2195 44.6362C72.2911 43.5038 73.4808 42.6359 74.7886 42.0324C76.1008 41.4122 77.2847 41.2421 78.3402 41.5222C79.4124 41.8066 80.2609 42.5966 80.8855 43.8922C81.5146 45.1709 81.6914 46.3297 81.4158 47.3684ZM78.6073 46.1929C78.6518 46.0253 78.5403 45.7357 78.273 45.3241C78.0056 44.9124 77.7128 44.6643 77.3944 44.5799C77.0929 44.4999 76.6391 44.6216 76.0333 44.945C75.4318 45.2517 74.82 45.6991 74.1977 46.2872C74.344 46.3439 74.5596 46.4101 74.8444 46.4857C77.1397 47.0946 78.394 46.997 78.6073 46.1929ZM91.6849 45.0897C92.3215 45.2586 92.8498 45.8022 93.2697 46.7206C93.6895 47.639 93.8194 48.3998 93.6594 49.0029C93.5527 49.405 93.3235 49.5594 92.9716 49.466C92.7706 49.4127 92.4974 49.2595 92.1521 49.0065C91.8112 48.7367 91.4397 48.5485 91.0376 48.4418C90.6523 48.3395 90.0387 48.3202 89.1969 48.3838C88.3719 48.4518 87.9016 48.7036 87.786 49.1392C87.7416 49.3068 87.9033 49.6097 88.2712 50.0481C88.6391 50.4864 89.0466 50.9442 89.4938 51.4215C89.9411 51.8989 90.3108 52.4991 90.6032 53.2222C90.8999 53.9286 90.955 54.6337 90.7683 55.3373C90.586 56.0242 89.8906 56.5839 88.6819 57.0164C87.49 57.4534 86.2071 57.4896 84.8333 57.1251C83.4763 56.765 82.3941 56.1462 81.5869 55.2685C80.7796 54.3908 80.4627 53.6252 80.6361 52.9718C80.8094 52.3184 81.1642 52.0629 81.7003 52.2051C81.9181 52.2629 82.1555 52.4156 82.4126 52.6631C83.1214 53.3712 84.0957 53.8897 85.3355 54.2187C86.592 54.5521 87.2647 54.5512 87.3536 54.2161C87.4425 53.8811 87.2974 53.448 86.9182 52.917C86.5602 52.3737 86.1431 51.8506 85.6668 51.3476C85.2073 50.8491 84.8013 50.2841 84.4488 49.6526C84.1175 49.0088 84.0163 48.4439 84.1452 47.9581C84.3852 47.0534 85.4662 46.2911 87.3881 45.6712C89.3144 45.0346 90.7467 44.8408 91.6849 45.0897ZM103.416 48.2021C104.052 48.371 104.581 48.9147 105 49.8331C105.42 50.7514 105.55 51.5122 105.39 52.1153C105.284 52.5174 105.054 52.6718 104.702 52.5784C104.501 52.5251 104.228 52.3719 103.883 52.1189C103.542 51.8491 103.171 51.6609 102.768 51.5542C102.383 51.452 101.77 51.4326 100.928 51.4962C100.103 51.5643 99.6324 51.8161 99.5169 52.2517C99.4724 52.4192 99.6341 52.7221 100.002 53.1605C100.37 53.5988 100.777 54.0566 101.225 54.534C101.672 55.0113 102.042 55.6115 102.334 56.3347C102.631 57.0411 102.686 57.7461 102.499 58.4497C102.317 59.1366 101.621 59.6963 100.413 60.1288C99.2208 60.5658 97.938 60.602 96.5642 60.2375C95.2071 59.8775 94.125 59.2586 93.3177 58.3809C92.5105 57.5032 92.1935 56.7376 92.3669 56.0843C92.5403 55.4309 92.895 55.1753 93.4311 55.3175C93.6489 55.3753 93.8864 55.528 94.1435 55.7755C94.8523 56.4836 95.8265 57.0022 97.0663 57.3311C98.3228 57.6645 98.9956 57.6636 99.0845 57.3286C99.1734 56.9935 99.0282 56.5605 98.649 56.0295C98.2911 55.4862 97.8739 54.963 97.3977 54.4601C96.9381 53.9615 96.5321 53.3965 96.1796 52.765C95.8483 52.1212 95.7471 51.5563 95.876 51.0705C96.1161 50.1658 97.197 49.4035 99.1189 48.7836C101.045 48.147 102.478 47.9532 103.416 48.2021ZM107.92 60.5066C108.931 60.3445 109.934 59.7409 110.929 58.6957C111.923 57.6505 112.563 56.5918 112.847 55.5195C113.132 54.4473 113.177 53.6701 112.982 53.188C112.15 53.4157 111.196 54.1041 110.12 55.2533C109.061 56.4069 108.396 57.4947 108.125 58.5167C107.858 59.5219 107.79 60.1852 107.92 60.5066ZM104.691 57.8745C105.246 55.7803 106.418 53.9661 108.206 52.432C110.011 50.9023 111.55 50.3064 112.823 50.6442C114.096 50.982 115.048 51.7188 115.679 52.8547C116.315 53.9738 116.464 55.17 116.126 56.4432C115.793 57.6998 115.151 58.9014 114.201 60.0482C113.251 61.1949 112.116 62.0594 110.796 62.6417C109.481 63.2072 108.203 63.3255 106.963 62.9966C106.042 62.7521 105.355 62.1305 104.902 61.1317C104.45 60.133 104.379 59.0473 104.691 57.8745ZM127.846 54.6569C128.717 54.8881 129.375 55.484 129.819 56.4448C130.285 57.3933 130.4 58.3115 130.164 59.1994C129.786 60.6235 129.156 62.0523 128.274 63.486C127.412 64.9073 126.594 65.9634 125.819 66.6544C125.061 67.3499 124.397 67.622 123.827 67.4709C123.274 67.3242 123.102 66.8572 123.311 66.0697C123.471 65.4666 124.07 64.3253 125.107 62.6458C125.926 61.2491 126.422 60.2241 126.596 59.5707C126.769 58.9173 126.772 58.5684 126.604 58.5239C126.387 58.4662 126.14 58.5173 125.864 58.6773C125.605 58.8417 125.387 58.9899 125.208 59.1219C125.03 59.2539 124.813 59.4295 124.557 59.6486C124.323 59.8555 124.11 60.05 123.918 60.2323C123.748 60.4022 123.518 60.628 123.228 60.9098C122.959 61.1792 122.737 61.4072 122.562 61.5939C122.391 61.7638 122.169 61.9919 121.896 62.2781C119.565 64.7798 117.955 65.9129 117.067 65.6773C116.715 65.584 116.351 65.1646 115.975 64.4192C115.603 63.6571 115.455 63.1336 115.531 62.8488C115.58 62.6645 115.802 62.3019 116.196 61.761C116.612 61.2078 116.912 60.7854 117.097 60.4937C117.303 60.1898 117.489 59.8624 117.654 59.5116C117.835 59.1653 118.007 58.7893 118.168 58.3838C118.334 57.9616 118.456 57.6354 118.535 57.4053C118.631 57.1796 118.762 56.8199 118.929 56.3262C119.658 54.1882 120.104 53.0153 120.266 52.8074C120.446 52.604 120.603 52.52 120.737 52.5556C121.373 52.7245 121.914 53.1548 122.358 53.8465C122.806 54.5215 122.973 55.0767 122.857 55.5123C122.582 56.551 121.918 57.971 120.866 59.7722C122.462 58.1512 123.864 56.8554 125.072 55.8847C126.301 54.9017 127.226 54.4924 127.846 54.6569ZM145.478 55.9728C145.594 55.5372 145.904 55.1443 146.41 54.7942C146.936 54.4318 147.384 54.2995 147.752 54.3972C148.138 54.4995 148.47 55.0719 148.749 56.1143C149.029 57.1568 149.113 57.8875 149.002 58.3064C148.895 58.7084 148.679 58.9828 148.353 59.1295C148.027 59.2762 147.722 59.3117 147.437 59.2362C146.951 59.1073 146.474 58.64 146.006 57.8345C145.539 57.0289 145.363 56.4084 145.478 55.9728ZM145.022 59.2141C145.608 59.3697 146.039 59.8425 146.313 60.6327C146.604 61.4273 146.668 62.1346 146.503 62.7544C146.419 63.0728 145.821 64.1426 144.71 65.964C143.621 67.773 142.558 69.4815 141.521 71.0895C141.147 71.6896 140.65 71.9074 140.03 71.7429C139.661 71.6451 139.37 71.4244 139.156 71.0808C138.964 70.7248 138.925 70.3291 139.041 69.8935C139.161 69.4411 139.664 68.391 140.549 66.7429C141.456 65.0826 142.183 63.6615 142.73 62.4795C143.298 61.2852 143.749 60.4277 144.085 59.907C144.441 59.3739 144.754 59.143 145.022 59.2141ZM156.72 62.3448C157.357 62.5137 157.885 63.0573 158.305 63.9757C158.725 64.8941 158.854 65.6549 158.694 66.258C158.588 66.6601 158.358 66.8144 158.007 66.7211C157.806 66.6678 157.532 66.5146 157.187 66.2616C156.846 65.9918 156.475 65.8036 156.073 65.6969C155.687 65.5946 155.074 65.5753 154.232 65.6389C153.407 65.7069 152.937 65.9587 152.821 66.3943C152.777 66.5619 152.938 66.8648 153.306 67.3031C153.674 67.7415 154.082 68.1993 154.529 68.6766C154.976 69.1539 155.346 69.7542 155.638 70.4773C155.935 71.1837 155.99 71.8887 155.803 72.5924C155.621 73.2793 154.926 73.839 153.717 74.2715C152.525 74.7085 151.242 74.7447 149.868 74.3802C148.511 74.0201 147.429 73.4013 146.622 72.5236C145.815 71.6459 145.498 70.8803 145.671 70.2269C145.844 69.5735 146.199 69.3179 146.735 69.4602C146.953 69.518 147.191 69.6706 147.448 69.9182C148.156 70.6263 149.131 71.1448 150.37 71.4738C151.627 71.8071 152.3 71.8063 152.389 71.4712C152.478 71.1361 152.332 70.7031 151.953 70.1721C151.595 69.6288 151.178 69.1057 150.702 68.6027C150.242 68.1042 149.836 67.5392 149.484 66.9077C149.152 66.2638 149.051 65.699 149.18 65.2131C149.42 64.3084 150.501 63.5462 152.423 62.9263C154.349 62.2897 155.782 62.0958 156.72 62.3448ZM170.366 70.4843L170.968 67.6046C171.217 66.6664 171.635 66.2751 172.221 66.4306C172.556 66.5195 172.85 66.7319 173.101 67.0676C173.37 67.4078 173.516 67.8682 173.542 68.4488C174.245 68.0973 174.971 67.8597 175.721 67.7359C176.493 67.5999 177.138 67.6007 177.658 67.7385C178.881 68.063 179.414 68.5185 179.259 69.1048C179.179 69.4064 179.06 69.617 178.903 69.7367C178.767 69.844 178.656 69.9223 178.571 69.9716C178.503 70.0253 178.378 70.0907 178.197 70.168C178.036 70.233 177.915 70.2817 177.835 70.3142C177.383 70.4632 177.06 70.5658 176.866 70.6219C175.987 70.8909 175.191 71.2894 174.477 71.8173C173.768 72.3285 173.123 73.1349 172.544 74.2365C171.581 76.0432 170.754 77.3662 170.065 78.2056C169.398 79.0327 168.796 79.3751 168.26 79.2328C167.74 79.095 167.413 78.7393 167.278 78.1655C167.161 77.5963 167.159 77.0938 167.275 76.6582C167.395 76.2059 167.732 75.578 168.286 74.7745C168.856 73.9754 169.285 73.2731 169.571 72.6676C169.878 72.0498 170.143 71.322 170.366 70.4843ZM189.227 75.9728C189.009 76.7937 188.252 77.382 186.956 77.7375C185.677 78.0976 184.451 78.122 183.278 77.8108C182.106 77.4997 181.165 77.1603 180.455 76.7927C180.184 77.2051 179.989 77.6374 179.869 78.0898C179.749 78.5421 179.738 78.8888 179.835 79.1299C179.937 79.3542 180.289 79.5463 180.893 79.7064C182.149 80.0397 183.252 80.207 184.203 80.208C185.17 80.2135 185.67 80.2207 185.703 80.2295C186.39 80.4118 186.674 80.7291 186.554 81.1814C186.38 81.8348 185.671 82.3103 184.427 82.6077C183.199 82.9096 181.873 82.8716 180.449 82.4938C179.042 82.1204 178.028 81.3764 177.41 80.2618C176.791 79.1471 176.641 77.9867 176.961 76.7804C177.286 75.5574 177.976 74.3774 179.03 73.2406C180.102 72.1082 181.292 71.2403 182.599 70.6368C183.912 70.0166 185.096 69.8465 186.151 70.1265C187.223 70.411 188.072 71.201 188.696 72.4965C189.326 73.7753 189.502 74.934 189.227 75.9728ZM186.418 74.7972C186.463 74.6297 186.351 74.3401 186.084 73.9284C185.816 73.5168 185.524 73.2687 185.205 73.1843C184.904 73.1042 184.45 73.226 183.844 73.5494C183.243 73.8561 182.631 74.3035 182.009 74.8916C182.155 74.9483 182.371 75.0145 182.655 75.09C184.951 75.699 186.205 75.6014 186.418 74.7972ZM200.619 80.206C200.85 80.554 200.936 80.837 200.878 81.0548C200.821 81.2726 200.6 81.6982 200.217 82.3318C199.833 82.9654 199.557 83.4659 199.388 83.8335C199.223 84.1843 199.087 84.4619 198.979 84.6664C198.887 84.8753 198.816 85.0445 198.763 85.1741C198.715 85.2869 198.642 85.4288 198.543 85.5998C198.46 85.7752 198.387 85.9171 198.322 86.0255C198.279 86.1215 198.212 86.2383 198.122 86.3758C198.053 86.5009 197.982 86.5987 197.909 86.6691C197.841 86.7228 197.763 86.7826 197.673 86.8486C197.537 86.956 197.352 86.9785 197.117 86.9163C196.883 86.8541 196.652 86.5417 196.425 85.9793C196.214 85.4213 196.114 84.785 196.124 84.0704C194.122 85.2609 192.586 85.7139 191.513 85.4294C190.793 85.2383 190.118 84.6379 189.49 83.6282C188.865 82.6018 188.658 81.6948 188.866 80.9074C189.08 80.1032 189.742 79.0596 190.854 77.7764C191.965 76.4932 193.308 75.3878 194.881 74.4602C196.471 73.5371 197.877 73.2378 199.1 73.5622C199.804 73.7489 200.508 74.375 201.211 75.4404C201.915 76.5058 202.176 77.382 201.993 78.0689C201.816 78.739 201.358 79.4514 200.619 80.206ZM192.253 82.2363C192.923 82.4141 193.931 82.1974 195.277 81.586C196.644 80.9624 197.646 79.9909 198.283 78.6714C198.353 78.4748 198.526 78.3953 198.803 78.433C199.006 77.4647 198.974 76.945 198.706 76.8738C198.036 76.696 197.166 76.9316 196.097 77.5805C195.045 78.2339 194.12 78.9837 193.322 79.8299C192.54 80.6806 192.087 81.3405 191.963 81.8096C191.927 81.9436 191.919 82.0402 191.94 82.0994C191.981 82.1462 192.085 82.1919 192.253 82.2363ZM216.894 70.7514C217.296 70.8581 217.726 71.3667 218.184 72.2772C218.646 73.171 218.793 73.9362 218.624 74.5728C218.54 74.8911 217.895 76.1369 216.691 78.3101C215.487 80.4833 214.762 81.7972 214.515 82.252C211.641 87.6764 209.895 90.3063 209.275 90.1419C208.923 90.0485 208.585 89.7347 208.26 89.2002C207.936 88.6658 207.827 88.1976 207.934 87.7955C207.956 87.7117 207.982 87.6469 208.012 87.6011C205.972 88.5304 204.584 88.8973 203.847 88.7017C203.126 88.5105 202.525 87.9385 202.042 86.9856C201.581 86.0204 201.435 85.2194 201.604 84.5828C201.773 83.9461 202.043 83.2647 202.415 82.5385C202.808 81.8 203.305 81.044 203.905 80.2706C204.504 79.4972 205.139 78.7958 205.808 78.1663C206.498 77.5246 207.243 77.0497 208.042 76.7416C208.862 76.4212 209.633 76.3566 210.353 76.5478C211.425 76.8323 212.16 77.6101 212.558 78.8814C214.516 75.1508 215.652 72.6276 215.965 71.312C216.099 70.8094 216.408 70.6225 216.894 70.7514ZM205.02 85.5968C205.439 85.7079 206.238 85.5344 207.418 85.0762C208.614 84.6225 209.602 83.9073 210.381 82.9304C210.4 82.792 210.469 82.4965 210.589 82.0442C210.709 81.5919 210.672 81.1246 210.477 80.6425C210.282 80.1604 210.059 79.886 209.808 79.8194C209.305 79.686 208.748 79.8252 208.137 80.2368C207.542 80.6529 207.013 81.194 206.549 81.86C205.566 83.267 204.968 84.3726 204.755 85.1767C204.719 85.3108 204.712 85.4074 204.732 85.4665C204.773 85.5133 204.869 85.5568 205.02 85.5968ZM227.05 81.6504C227.262 81.2583 227.594 81.1222 228.046 81.2422C228.499 81.3622 228.884 81.7693 229.202 82.4634C229.537 83.1619 229.608 83.8714 229.417 84.5918C229.306 85.0106 228.98 85.6324 228.438 86.4571C227.897 87.2817 227.508 87.869 227.271 88.2188C227.052 88.573 226.736 89.054 226.324 89.662C225.916 90.2531 225.536 90.8068 225.183 91.3231C224.852 91.8271 224.395 92.5037 223.811 93.353C223.244 94.2068 222.719 95.0002 222.238 95.7333C221.319 97.1033 220.373 98.0988 219.401 98.7197C218.446 99.345 217.374 99.4999 216.185 99.1843C214.995 98.8687 214.016 98.2681 213.246 97.3825C212.473 96.5137 212.17 95.761 212.339 95.1243C212.441 94.739 212.722 94.3562 213.182 93.976C213.658 93.6003 214.013 93.4435 214.248 93.5058C214.499 93.5724 214.767 93.8496 215.05 94.3371C215.345 94.8459 215.651 95.3485 215.968 95.845C216.28 96.3582 216.595 96.657 216.913 96.7415C217.131 96.7993 217.334 96.7454 217.521 96.5799C217.725 96.4189 217.891 96.2657 218.02 96.1204C218.16 95.9963 218.318 95.8052 218.495 95.547C218.666 95.3056 218.825 95.0788 218.971 94.8665C219.117 94.6541 219.3 94.3709 219.519 94.0166C219.739 93.6624 219.93 93.3456 220.094 93.0663C220.619 92.2372 221.075 91.4974 221.463 90.8471C220.719 91.4209 219.996 91.8477 219.294 92.1277C218.597 92.391 217.997 92.456 217.494 92.3226C217.008 92.1937 216.494 91.6629 215.953 90.7301C215.432 89.7851 215.29 88.8686 215.526 87.9806C215.766 87.0759 216.278 85.9208 217.064 84.5152C217.866 83.114 218.716 81.9049 219.613 80.8877C220.511 79.8705 221.186 79.4219 221.638 79.542C222.157 79.6798 222.583 80.0348 222.916 80.6072C223.269 81.1673 223.39 81.6567 223.279 82.0756C223.173 82.4776 222.79 83.0755 222.131 83.869C221.489 84.6671 220.816 85.5466 220.113 86.5077C219.409 87.4688 218.958 88.3263 218.758 89.0803C218.731 89.1808 218.76 89.2422 218.843 89.2644C219.061 89.3222 219.629 89.0423 220.546 88.4248C221.467 87.7906 222.561 86.8435 223.828 85.5836C225.116 84.3113 226.19 83.0003 227.05 81.6504ZM230.336 96.1872C229.8 96.045 229.284 95.5582 228.787 94.727C228.307 93.9003 228.129 93.2524 228.253 92.7833C228.382 92.2974 228.718 91.8755 229.262 91.5175C229.81 91.1428 230.293 91.011 230.712 91.1221C231.147 91.2377 231.509 91.8357 231.796 92.9161C232.083 93.9966 232.162 94.7797 232.033 95.2656C231.967 95.5169 231.734 95.7511 231.336 95.9682C230.954 96.1898 230.621 96.2628 230.336 96.1872ZM97.9379 71.5191C98.3568 71.6302 98.7944 72.0422 99.2509 72.7551C99.7073 73.468 99.8577 74.1177 99.7022 74.704C99.2754 76.3124 97.6193 79.2085 94.7339 83.3925C93.7331 84.8665 93.1482 85.9218 92.9793 86.5584C92.9571 86.6422 92.9605 86.6969 92.9896 86.7225C93.0186 86.7482 93.3264 86.8388 93.9127 86.9944C94.4991 87.1499 95.3255 87.2795 96.3919 87.3832C97.4796 87.4745 98.3639 87.5208 99.045 87.5222C99.7429 87.528 100.15 87.5465 100.268 87.5776C100.687 87.6887 100.825 88.0123 100.683 88.5484C100.403 89.6039 99.3717 90.245 97.59 90.4717C95.8294 90.686 93.8937 90.5132 91.7827 89.9531C90.9618 89.7353 90.2879 89.2337 89.761 88.4483C89.2554 87.6506 89.1003 86.8832 89.2959 86.146C89.4915 85.4089 90.7426 83.1943 93.0492 79.5024C95.3602 75.7937 96.6735 73.3446 96.9891 72.155C97.1358 71.6022 97.4521 71.3902 97.9379 71.5191ZM115.271 87.3889C115.053 88.2098 114.297 88.7981 113.001 89.1536C111.722 89.5136 110.496 89.5381 109.323 89.2269C108.15 88.9158 107.209 88.5764 106.5 88.2088C106.229 88.6212 106.033 89.0535 105.913 89.5059C105.793 89.9582 105.782 90.3049 105.879 90.546C105.981 90.7703 106.334 90.9624 106.937 91.1225C108.194 91.4558 109.297 91.623 110.247 91.6241C111.214 91.6296 111.714 91.6368 111.748 91.6456C112.435 91.8279 112.718 92.1452 112.598 92.5975C112.425 93.2509 111.716 93.7264 110.471 94.0238C109.243 94.3257 107.917 94.2877 106.493 93.9099C105.086 93.5365 104.073 92.7925 103.454 91.6778C102.835 90.5632 102.686 89.4027 103.006 88.1965C103.33 86.9735 104.02 85.7935 105.075 84.6567C106.146 83.5243 107.336 82.6564 108.644 82.0529C109.956 81.4327 111.14 81.2626 112.196 81.5426C113.268 81.8271 114.116 82.6171 114.741 83.9126C115.37 85.1914 115.547 86.3501 115.271 87.3889ZM112.463 86.2133C112.507 86.0458 112.396 85.7562 112.128 85.3445C111.861 84.9329 111.568 84.6848 111.25 84.6003C110.948 84.5203 110.495 84.6421 109.889 84.9655C109.287 85.2722 108.675 85.7196 108.053 86.3076C108.199 86.3644 108.415 86.4306 108.7 86.5061C110.995 87.1151 112.249 87.0175 112.463 86.2133ZM123.246 87.6755C122.992 88.0923 122.622 88.6756 122.136 89.4254C121.671 90.1629 121.084 91.092 120.374 92.2128C119.681 93.338 119.323 93.9425 119.301 94.0263C119.283 94.0933 119.408 94.1624 119.677 94.2335C119.961 94.3091 120.672 94.3004 121.809 94.2074C122.949 94.0976 123.612 94.0672 123.796 94.1161C124.215 94.2272 124.349 94.5676 124.198 95.1372C124.047 95.7069 123.303 96.2449 121.967 96.7512C120.636 97.2408 119.359 97.3234 118.136 96.9989C117.6 96.8566 117.041 96.3945 116.459 95.6126C115.878 94.8306 115.667 94.1381 115.827 93.5349C115.96 93.0323 116.492 92.0435 117.421 90.5685C118.372 89.0812 119.019 88.0604 119.363 87.5062C118.661 87.5171 118.142 87.4781 117.807 87.3892C117.472 87.3003 117.18 86.9808 116.932 86.4307C116.688 85.8638 116.621 85.3709 116.732 84.9521C116.875 84.416 118.293 84.3081 120.988 84.6285C121.719 83.1549 122.236 81.8484 122.539 80.7092C122.672 80.2066 122.99 80.0219 123.492 80.1553C123.928 80.2709 124.41 80.6856 124.938 81.3995C125.487 82.1011 125.692 82.7116 125.555 83.231C125.421 83.7336 125.124 84.4167 124.661 85.2804C125.474 85.4603 126.09 85.6058 126.509 85.7169C127.766 86.0503 128.318 86.5018 128.167 87.0714C128.069 87.44 127.616 87.6605 126.808 87.733C126.021 87.7931 124.834 87.774 123.246 87.6755ZM134.571 77.9569C135.442 78.188 136.072 78.6869 136.461 79.4535C136.866 80.2245 136.928 81.1377 136.648 82.1932C136.368 83.2487 135.58 84.2948 134.282 85.3314C133.002 86.3725 131.968 86.7886 131.181 86.5797C130.393 86.3708 130.088 85.9313 130.266 85.2611C130.346 84.9595 130.809 84.4638 131.656 83.7738C132.507 83.0671 133.008 82.4289 133.159 81.8593C133.315 81.2729 133.215 80.7354 132.861 80.2468C132.506 79.7582 132.373 79.3464 132.462 79.0113C132.551 78.6762 132.816 78.3878 133.257 78.1461C133.697 77.9044 134.136 77.8413 134.571 77.9569ZM145.713 90.4625C146.35 90.6314 146.878 91.175 147.298 92.0934C147.718 93.0118 147.848 93.7726 147.688 94.3757C147.581 94.7778 147.352 94.9322 147 94.8388C146.799 94.7855 146.526 94.6323 146.181 94.3793C145.84 94.1095 145.468 93.9213 145.066 93.8146C144.681 93.7124 144.067 93.693 143.225 93.7566C142.4 93.8246 141.93 94.0765 141.815 94.512C141.77 94.6796 141.932 94.9825 142.3 95.4209C142.668 95.8592 143.075 96.317 143.522 96.7943C143.97 97.2717 144.339 97.8719 144.632 98.595C144.928 99.3014 144.983 100.006 144.797 100.71C144.615 101.397 143.919 101.957 142.71 102.389C141.518 102.826 140.236 102.862 138.862 102.498C137.505 102.138 136.423 101.519 135.615 100.641C134.808 99.7636 134.491 98.998 134.665 98.3446C134.838 97.6912 135.193 97.4357 135.729 97.5779C135.947 97.6357 136.184 97.7884 136.441 98.0359C137.15 98.744 138.124 99.2625 139.364 99.5915C140.62 99.9249 141.293 99.924 141.382 99.5889C141.471 99.2539 141.326 98.8208 140.947 98.2898C140.589 97.7465 140.172 97.2234 139.695 96.7204C139.236 96.2219 138.83 95.6569 138.477 95.0254C138.146 94.3816 138.045 93.8167 138.174 93.3309C138.414 92.4262 139.495 91.6639 141.417 91.044C143.343 90.4074 144.775 90.2136 145.713 90.4625ZM167.59 102.05C167.766 102.402 167.8 102.778 167.694 103.181C167.587 103.583 167.288 104.032 166.798 104.53C166.112 105.424 165.412 106.574 164.698 107.981C163.984 109.388 163.351 110.493 162.797 111.296C162.255 112.121 161.715 112.803 161.178 113.341C160.657 113.885 160.031 114.284 159.3 114.538C158.569 114.792 157.802 114.813 156.998 114.599C155.875 114.302 154.968 113.666 154.275 112.694C153.583 111.721 153.308 110.966 153.45 110.43C153.588 109.911 153.857 109.471 154.257 109.111C154.653 108.768 154.969 108.627 155.203 108.69C155.454 108.756 155.653 108.953 155.8 109.278C155.963 109.609 156.097 109.949 156.202 110.3C156.318 110.671 156.5 111.033 156.747 111.386C156.995 111.738 157.311 111.966 157.696 112.068C158.081 112.17 158.5 112.012 158.952 111.594C159.403 111.176 159.791 110.696 160.114 110.154C160.897 108.891 161.417 107.98 161.673 107.42C160.347 107.822 159.324 107.927 158.603 107.736C157.9 107.549 157.315 106.981 156.849 106.033C156.388 105.068 156.249 104.242 156.431 103.555C156.618 102.851 157.033 102.029 157.677 101.088C158.343 100.135 159.106 99.2165 159.968 98.3333C160.851 97.4379 161.845 96.7332 162.95 96.2193C164.072 95.7099 165.093 95.5774 166.015 95.8219C166.634 95.9863 167.12 96.2855 167.471 96.7194C167.827 97.1366 168.036 97.6315 168.099 98.2042C168.211 99.2022 168.116 100.271 167.814 101.41C167.769 101.578 167.695 101.791 167.59 102.05ZM159.555 104.249C159.498 104.467 159.561 104.6 159.745 104.649C160.231 104.778 161.136 104.543 162.461 103.944C163.785 103.345 164.747 102.659 165.347 101.886L165.474 101.408C165.763 100.319 165.838 99.6306 165.699 99.3427C165.63 99.1988 165.511 99.1046 165.344 99.0601C164.539 98.8468 163.427 99.4572 162.006 100.892C160.586 102.326 159.769 103.445 159.555 104.249ZM171.986 108.543C172.997 108.38 174 107.777 174.995 106.732C175.989 105.686 176.629 104.628 176.913 103.555C177.198 102.483 177.243 101.706 177.048 101.224C176.216 101.452 175.262 102.14 174.186 103.289C173.127 104.443 172.462 105.531 172.191 106.553C171.924 107.558 171.856 108.221 171.986 108.543ZM168.757 105.91C169.312 103.816 170.484 102.002 172.272 100.468C174.077 98.9382 175.616 98.3423 176.889 98.6801C178.162 99.018 179.114 99.7548 179.745 100.891C180.381 102.01 180.53 103.206 180.192 104.479C179.859 105.736 179.217 106.937 178.267 108.084C177.317 109.231 176.182 110.095 174.862 110.678C173.547 111.243 172.269 111.361 171.029 111.033C170.108 110.788 169.421 110.166 168.968 109.168C168.516 108.169 168.445 107.083 168.757 105.91ZM181.852 111.51C181.972 111.058 182.282 110.665 182.783 110.331C183.289 109.981 183.734 109.857 184.119 109.96C184.505 110.062 184.829 110.632 185.091 111.67C185.371 112.713 185.45 113.46 185.33 113.912C185.272 114.13 185.066 114.335 184.71 114.528C184.37 114.725 184.067 114.788 183.799 114.716C183.296 114.583 182.817 114.124 182.362 113.34C181.906 112.556 181.736 111.946 181.852 111.51ZM189.061 94.7813C189.19 94.2954 189.514 94.1214 190.034 94.2592C190.553 94.397 191.142 94.9478 191.801 95.9117C192.476 96.88 192.77 97.5317 192.681 97.8668C192.388 98.9725 191.387 101.155 189.68 104.414C187.993 107.661 186.865 109.209 186.296 109.057C185.843 108.937 185.461 108.585 185.15 108C184.839 107.416 184.742 106.87 184.859 106.363C184.874 106.17 185.083 105.651 185.486 104.808C185.894 103.948 186.445 102.614 187.139 100.808C187.838 98.9849 188.479 96.976 189.061 94.7813Z" fill="white"/>
<path d="M38.7029 71.7373L38.292 70.2947L38.7029 71.7373ZM2.65916 95.7878C2.676 96.6161 3.36109 97.2739 4.18934 97.257L17.6865 96.9825C18.5148 96.9657 19.1726 96.2806 19.1557 95.4524C19.1389 94.6241 18.4538 93.9663 17.6256 93.9832L5.62804 94.2271L5.38407 82.2296C5.36723 81.4014 4.68214 80.7436 3.85388 80.7604C3.02563 80.7773 2.36785 81.4624 2.38469 82.2906L2.65916 95.7878ZM78.6309 73.1538C78.9647 71.6914 78.9644 71.6914 78.964 71.6913C78.9638 71.6912 78.9633 71.6911 78.9628 71.691C78.9617 71.6908 78.9603 71.6904 78.9585 71.69C78.9549 71.6892 78.9498 71.6881 78.9432 71.6866C78.93 71.6836 78.9109 71.6793 78.8859 71.6737C78.836 71.6625 78.7627 71.6463 78.6671 71.6254C78.476 71.5837 78.1958 71.5236 77.835 71.4488C77.1134 71.2994 76.0691 71.0914 74.7702 70.8556C72.1738 70.3843 68.5537 69.8008 64.4575 69.3519C56.3227 68.4604 46.0927 68.0731 38.292 70.2947L39.1137 73.18C46.319 71.1279 56.053 71.4488 64.1307 72.334C68.1407 72.7735 71.6891 73.3453 74.2344 73.8074C75.5065 74.0383 76.5264 74.2415 77.2264 74.3865C77.5764 74.459 77.8462 74.5169 78.0275 74.5565C78.1181 74.5762 78.1866 74.5914 78.2319 74.6015C78.2545 74.6066 78.2714 74.6104 78.2822 74.6128C78.2877 74.6141 78.2917 74.615 78.2941 74.6155C78.2953 74.6158 78.2962 74.616 78.2967 74.6161C78.2969 74.6162 78.297 74.6162 78.2971 74.6162C78.2971 74.6162 78.297 74.6162 78.6309 73.1538ZM38.292 70.2947C30.0761 72.6346 21.2392 78.8125 14.5558 84.2735C11.1902 87.0235 8.32557 89.6297 6.30197 91.5487C5.28968 92.5086 4.48658 93.2977 3.93513 93.8484C3.65937 94.1237 3.44644 94.3395 3.30164 94.4873C3.22924 94.5612 3.17387 94.6182 3.13618 94.657C3.11734 94.6765 3.10292 94.6914 3.093 94.7017C3.08804 94.7068 3.08421 94.7108 3.08151 94.7136C3.08017 94.715 3.0791 94.7161 3.07832 94.7169C3.07793 94.7173 3.07756 94.7177 3.07737 94.7179C3.07707 94.7182 3.07684 94.7184 4.15885 95.7573C5.24085 96.7962 5.24077 96.7963 5.24076 96.7963C5.24085 96.7962 5.2409 96.7961 5.24108 96.796C5.24145 96.7956 5.2421 96.7949 5.24302 96.7939C5.24488 96.792 5.24787 96.7889 5.25198 96.7846C5.2602 96.7761 5.2729 96.763 5.29 96.7454C5.3242 96.7101 5.37599 96.6568 5.44471 96.5867C5.58216 96.4464 5.78732 96.2384 6.05488 95.9713C6.59007 95.4368 7.37461 94.6659 8.36624 93.7255C10.3505 91.8439 13.1589 89.289 16.454 86.5966C23.0919 81.1728 31.527 75.3407 39.1137 73.18L38.292 70.2947Z" fill="white"/>
</g>
<defs>
<filter id="filter0_d_5490_8382" x="0.384766" y="2.41724" width="246.016" height="132.51" filterUnits="userSpaceOnUse" color-interpolation-filters="sRGB">
<feFlood flood-opacity="0" result="BackgroundImageFix"/>
<feColorMatrix in="SourceAlpha" type="matrix" values="0 0 0 0 0 0 0 0 0 0 0 0 0 0 0 0 0 0 127 0" result="hardAlpha"/>
<feOffset dy="1"/>
<feGaussianBlur stdDeviation="1"/>
<feColorMatrix type="matrix" values="0 0 0 0 0.164706 0 0 0 0 0.2 0 0 0 0 0.258824 0 0 0 0.7 0"/>
<feBlend mode="normal" in2="BackgroundImageFix" result="effect1_dropShadow_5490_8382"/>
<feBlend mode="normal" in="SourceGraphic" in2="effect1_dropShadow_5490_8382" result="shape"/>
</filter>
</defs>
</svg>
